# Blender 4.2.1 LTS
# www.blender.org
mtllib L3.mtl
o L3
v 0.026121 -0.012000 -0.004379
v 0.025148 -0.012000 -0.003728
v 0.024000 -0.012000 -0.003500
v -0.002121 -0.012000 0.002121
v -0.002772 -0.012000 0.001148
v -0.003000 -0.012000 -0.000000
v 0.002332 -0.012000 -0.042500
v 0.002960 -0.012000 -0.041841
v -0.003800 -0.012000 -0.039500
v 0.008800 -0.012000 -0.027407
v 0.009937 -0.012000 -0.025533
v -0.003800 -0.012000 -0.007200
v 0.011422 -0.012000 -0.023787
v -0.003000 -0.012000 -0.007200
v 0.003000 -0.012000 -0.000000
v 0.000000 -0.012000 0.003000
v -0.001148 -0.012000 0.002772
v -0.000315 -0.012000 -0.043287
v 0.001083 -0.012000 -0.043143
v 0.003362 -0.012000 -0.041024
v 0.003500 -0.012000 -0.040125
v 0.003500 -0.012000 -0.038688
v 0.001148 -0.012000 0.002772
v 0.002121 -0.012000 0.002121
v 0.002772 -0.012000 0.001148
v -0.002796 -0.012000 -0.042073
v -0.001670 -0.012000 -0.042913
v 0.003000 -0.012000 -0.003500
v 0.012968 -0.012000 -0.022565
v 0.027000 -0.012000 -0.008662
v 0.027000 -0.012000 -0.006500
v 0.016454 -0.012000 -0.021500
v 0.026772 -0.012000 -0.005352
v -0.003540 -0.012000 -0.040881
v 0.006500 -0.012000 -0.035537
v 0.006994 -0.012000 -0.032448
v 0.007769 -0.012000 -0.029780
v 0.018037 -0.012000 -0.021500
v 0.019044 -0.012000 -0.021326
v 0.019933 -0.012000 -0.020825
v 0.015981 -0.012000 -0.021519
v 0.014500 -0.012000 -0.021830
v 0.020603 -0.012000 -0.020055
v 0.026566 -0.012000 -0.010217
v 0.026889 -0.012000 -0.009469
v -0.003000 0.006375 -0.000000
v -0.003000 0.012000 -0.000000
v -0.003000 0.006375 -0.003500
v -0.003000 0.012000 -0.007200
v -0.003000 -0.006375 -0.003500
v -0.003000 -0.006375 -0.000000
v 0.003000 0.012000 -0.003500
v 0.003000 0.012000 -0.000000
v 0.003000 0.006375 -0.003500
v 0.003000 0.006375 -0.000000
v 0.003000 -0.006375 -0.000000
v 0.003000 -0.006375 -0.003500
v 0.002772 0.012000 0.001148
v 0.002772 0.006375 0.001148
v 0.002121 0.012000 0.002121
v 0.002121 0.006375 0.002121
v 0.001148 0.012000 0.002772
v 0.001148 0.006375 0.002772
v 0.000000 0.012000 0.003000
v 0.000000 0.006375 0.003000
v -0.001148 0.012000 0.002772
v -0.001148 0.006375 0.002772
v -0.002121 0.012000 0.002121
v -0.002121 0.006375 0.002121
v -0.002772 0.012000 0.001148
v -0.002772 0.006375 0.001148
v 0.002772 -0.006375 0.001148
v 0.002121 -0.006375 0.002121
v 0.001148 -0.006375 0.002772
v 0.000000 -0.006375 0.003000
v -0.001148 -0.006375 0.002772
v -0.002121 -0.006375 0.002121
v -0.002772 -0.006375 0.001148
v 0.026566 0.012000 -0.010217
v 0.020603 0.012000 -0.020055
v -0.002796 0.012000 -0.042073
v -0.003540 0.012000 -0.040881
v -0.003800 0.012000 -0.039500
v 0.003500 0.012000 -0.038688
v 0.003500 0.012000 -0.040125
v 0.014500 0.012000 -0.021830
v 0.012968 0.012000 -0.022565
v -0.003800 0.012000 -0.007200
v 0.011422 0.012000 -0.023787
v 0.009937 0.012000 -0.025533
v 0.003362 0.012000 -0.041024
v 0.002960 0.012000 -0.041841
v 0.002332 0.012000 -0.042500
v 0.027000 0.012000 -0.006500
v 0.027000 0.012000 -0.008662
v 0.016454 0.012000 -0.021500
v 0.024000 0.012000 -0.003500
v 0.015981 0.012000 -0.021519
v 0.006500 0.012000 -0.035537
v 0.006994 0.012000 -0.032448
v 0.007769 0.012000 -0.029780
v 0.008800 0.012000 -0.027407
v -0.001670 0.012000 -0.042913
v -0.000315 0.012000 -0.043287
v 0.001083 0.012000 -0.043143
v 0.026772 0.012000 -0.005352
v 0.026121 0.012000 -0.004379
v 0.025148 0.012000 -0.003728
v 0.019933 0.012000 -0.020825
v 0.019044 0.012000 -0.021326
v 0.018037 0.012000 -0.021500
v 0.026889 0.012000 -0.009469
vn -0.0000 -1.0000 -0.0000
vn -0.9952 -0.0000 0.0980
vn -1.0000 -0.0000 -0.0000
vn 1.0000 -0.0000 -0.0000
vn 0.9952 -0.0000 0.0980
vn 0.9239 -0.0000 0.3827
vn 0.7071 -0.0000 0.7071
vn 0.3827 -0.0000 0.9239
vn -0.0000 -0.0000 1.0000
vn -0.3827 -0.0000 0.9239
vn -0.7071 -0.0000 0.7071
vn -0.9239 -0.0000 0.3827
vn 0.8885 -0.0000 -0.4589
vn 0.8078 -0.0000 -0.5894
vn -0.0000 1.0000 -0.0000
vn 0.9977 -0.0000 -0.0681
vn 0.0980 -0.0000 0.9952
vn -0.9957 -0.0000 -0.0928
vn -0.9957 -0.0000 -0.0929
vn -0.9316 -0.0000 -0.3634
vn -0.7358 -0.0000 -0.6771
vn -0.7358 -0.0000 -0.6772
vn -0.4394 -0.0000 -0.8983
vn -0.0829 -0.0000 -0.9966
vn 0.2849 -0.0000 -0.9586
vn 0.5989 -0.0000 -0.8008
vn 0.0204 -0.0000 -0.9998
vn 0.0854 -0.0000 -0.9963
vn 0.9971 -0.0000 -0.0761
vn 0.9631 -0.0000 -0.2691
vn 0.3353 -0.0000 -0.9421
vn 0.3354 -0.0000 -0.9421
vn 0.6319 -0.0000 -0.7751
vn 0.8201 -0.0000 -0.5722
vn 0.9540 -0.0000 -0.2999
vn 0.7242 -0.0000 -0.6895
vn 0.1235 -0.0000 -0.9923
vn 0.3213 -0.0000 -0.9470
vn 0.5296 -0.0000 -0.8482
vn 0.6943 -0.0000 -0.7197
vn 0.8109 -0.0000 -0.5852
vn 0.8881 -0.0000 -0.4597
vn 0.9407 -0.0000 -0.3393
vn 0.9758 -0.0000 -0.2188
vn 0.9874 -0.0000 -0.1580
vt 0.617977 0.436992
vt 0.608375 0.440223
vt 0.598267 0.439533
vt 0.367319 0.427392
vt 0.364088 0.417790
vt 0.364778 0.407682
vt 0.505490 0.064684
vt 0.509246 0.071609
vt 0.447469 0.075872
vt 0.525374 0.205415
vt 0.530633 0.223642
vt 0.374386 0.345720
vt 0.539089 0.241585
vt 0.381069 0.347530
vt 0.414905 0.421258
vt 0.383053 0.439533
vt 0.373979 0.435028
vt 0.485152 0.052119
vt 0.496503 0.056489
vt 0.510752 0.079342
vt 0.509870 0.087171
vt 0.506620 0.099171
vt 0.393161 0.440223
vt 0.402764 0.436992
vt 0.410399 0.430332
vt 0.461678 0.056646
vt 0.472989 0.052174
vt 0.422824 0.392017
vt 0.549240 0.255296
vt 0.635010 0.403197
vt 0.630118 0.421258
vt 0.575948 0.272078
vt 0.625613 0.430332
vt 0.452765 0.064922
vt 0.524554 0.132283
vt 0.521695 0.159208
vt 0.522128 0.183253
vt 0.589181 0.275662
vt 0.597193 0.279390
vt 0.603491 0.285589
vt 0.572045 0.270848
vt 0.560373 0.264900
vt 0.607346 0.293540
vt 0.634899 0.389223
vt 0.635912 0.396202
vt 0.211163 0.052119
vt 0.259849 0.052119
vt 0.211163 0.082413
vt 0.259849 0.114438
vt 0.100806 0.082413
vt 0.052119 0.114438
vt 0.100806 0.052120
vt 0.052119 0.052120
vt 0.788837 0.390054
vt 0.788837 0.420348
vt 0.740151 0.390054
vt 0.740151 0.420348
vt 0.740151 0.635933
vt 0.740151 0.605639
vt 0.788837 0.635933
vt 0.788837 0.605639
vt 0.788837 0.430480
vt 0.740151 0.430480
vt 0.788837 0.440611
vt 0.740151 0.440611
vt 0.788837 0.450743
vt 0.740151 0.450743
vt 0.788837 0.460874
vt 0.740151 0.460874
vt 0.788837 0.471006
vt 0.740151 0.471006
vt 0.788837 0.481137
vt 0.740151 0.481137
vt 0.788837 0.491269
vt 0.740151 0.491269
vt 0.788837 0.501401
vt 0.740151 0.501401
vt 0.788837 0.646065
vt 0.740151 0.646065
vt 0.788837 0.656196
vt 0.740151 0.656196
vt 0.788837 0.666328
vt 0.740151 0.666328
vt 0.788837 0.676459
vt 0.740151 0.676459
vt 0.788837 0.686591
vt 0.740151 0.686591
vt 0.788837 0.696723
vt 0.740151 0.696723
vt 0.788837 0.706854
vt 0.740151 0.706854
vt 0.788837 0.716986
vt 0.740151 0.716986
vt 0.052120 0.848710
vt 0.052119 0.749139
vt 0.259849 0.848710
vt 0.259849 0.749139
vt 0.461678 0.928039
vt 0.452765 0.919763
vt 0.447470 0.908813
vt 0.506620 0.885514
vt 0.509870 0.897514
vt 0.414905 0.563427
vt 0.422824 0.592668
vt 0.381069 0.637155
vt 0.367319 0.557292
vt 0.373979 0.549657
vt 0.383053 0.545152
vt 0.560373 0.719785
vt 0.549240 0.729389
vt 0.374386 0.638965
vt 0.539089 0.743100
vt 0.530633 0.761043
vt 0.510752 0.905343
vt 0.509246 0.913076
vt 0.505490 0.920001
vt 0.393161 0.544462
vt 0.402764 0.547693
vt 0.364778 0.577003
vt 0.364088 0.566895
vt 0.410399 0.554352
vt 0.630118 0.563427
vt 0.635010 0.581488
vt 0.575949 0.712606
vt 0.598267 0.545152
vt 0.572045 0.713837
vt 0.524554 0.852402
vt 0.521695 0.825477
vt 0.522128 0.801432
vt 0.525375 0.779270
vt 0.472989 0.932511
vt 0.485152 0.932566
vt 0.496503 0.928196
vt 0.625613 0.554352
vt 0.617977 0.547693
vt 0.608375 0.544462
vt 0.603491 0.699096
vt 0.597193 0.705295
vt 0.607346 0.691145
vt 0.589181 0.709023
vt 0.634899 0.595461
vt 0.635912 0.588482
vt 0.259849 0.862815
vt 0.259849 0.881526
vt 0.052120 0.862815
vt 0.052120 0.881526
vt 0.740151 0.285815
vt 0.740151 0.104052
vt 0.947881 0.285815
vt 0.788837 0.104052
vt 0.947881 0.104052
vt 0.899194 0.104052
vt 0.899194 0.052119
vt 0.788837 0.052119
vt 0.792083 0.877485
vt 0.740151 0.877485
vt 0.792083 0.847191
vt 0.740151 0.847191
vt 0.790107 0.837254
vt 0.742127 0.837254
vt 0.747756 0.828830
vt 0.784478 0.828830
vt 0.776054 0.823201
vt 0.766117 0.821224
vt 0.756180 0.823201
vt 0.893076 0.390054
vt 0.945009 0.390054
vt 0.893076 0.420348
vt 0.945009 0.420348
vt 0.943032 0.430285
vt 0.937403 0.438709
vt 0.928979 0.444338
vt 0.919043 0.446315
vt 0.909106 0.444338
vt 0.900682 0.438709
vt 0.895053 0.430285
vt 0.259849 0.922052
vt 0.052119 0.922052
vt 0.052119 0.911921
vt 0.259849 0.911921
vt 0.052120 0.901789
vt 0.259849 0.901789
vt 0.052120 0.891658
vt 0.259849 0.891658
vt 0.052119 0.121363
vt 0.259849 0.121363
vt 0.052119 0.400932
vt 0.259849 0.400932
vt 0.259849 0.413095
vt 0.052119 0.413095
vt 0.259849 0.425258
vt 0.052120 0.425258
vt 0.259849 0.437421
vt 0.052120 0.437421
vt 0.259849 0.449584
vt 0.052119 0.449584
vt 0.259849 0.461747
vt 0.052119 0.461747
vt 0.259849 0.473910
vt 0.052120 0.473910
vt 0.259849 0.708919
vt 0.259849 0.722629
vt 0.052119 0.708919
vt 0.052119 0.722629
vt 0.052120 0.509977
vt 0.052119 0.497545
vt 0.259849 0.509977
vt 0.259849 0.497545
vt 0.259849 0.855762
vt 0.052120 0.855762
vt 0.259849 0.731466
vt 0.052119 0.731466
vt 0.259849 0.740302
vt 0.052119 0.740302
vt 0.259849 0.481788
vt 0.052119 0.481788
vt 0.259849 0.489666
vt 0.052119 0.489666
vt 0.259849 0.547634
vt 0.052119 0.547634
vt 0.052119 0.704826
vt 0.259849 0.704826
vt 0.052120 0.691726
vt 0.259849 0.691726
vt 0.052119 0.677023
vt 0.259849 0.677023
vt 0.052120 0.659964
vt 0.259849 0.659964
vt 0.052120 0.640127
vt 0.259849 0.640127
vt 0.052119 0.621157
vt 0.259849 0.621157
vt 0.052119 0.598759
vt 0.259849 0.598759
vt 0.052119 0.574710
vt 0.259849 0.574710
s 1
g L3_L3_mtl
usemtl L3_mtl
f 1/1/1 2/2/1 3/3/1
f 4/4/1 5/5/1 6/6/1
f 7/7/1 8/8/1 9/9/1
f 10/10/1 11/11/1 12/12/1
f 12/12/1 11/11/1 13/13/1
f 12/12/1 13/13/1 14/14/1
f 15/15/1 16/16/1 17/17/1
f 18/18/1 19/19/1 7/7/1
f 8/8/1 20/20/1 9/9/1
f 9/9/1 20/20/1 21/21/1
f 9/9/1 21/21/1 22/22/1
f 23/23/1 16/16/1 24/24/1
f 24/24/1 16/16/1 15/15/1
f 24/24/1 15/15/1 25/25/1
f 26/26/1 27/27/1 18/18/1
f 17/17/1 4/4/1 15/15/1
f 15/15/1 4/4/1 6/6/1
f 15/15/1 6/6/1 28/28/1
f 28/28/1 6/6/1 14/14/1
f 28/28/1 14/14/1 29/29/1
f 29/29/1 14/14/1 13/13/1
f 30/30/1 31/31/1 32/32/1
f 32/32/1 31/31/1 33/33/1
f 7/7/1 9/9/1 18/18/1
f 18/18/1 9/9/1 34/34/1
f 18/18/1 34/34/1 26/26/1
f 22/22/1 35/35/1 9/9/1
f 9/9/1 35/35/1 36/36/1
f 9/9/1 36/36/1 12/12/1
f 12/12/1 36/36/1 37/37/1
f 12/12/1 37/37/1 10/10/1
f 38/38/1 39/39/1 40/40/1
f 33/33/1 1/1/1 32/32/1
f 32/32/1 1/1/1 3/3/1
f 32/32/1 3/3/1 41/41/1
f 41/41/1 3/3/1 28/28/1
f 41/41/1 28/28/1 42/42/1
f 42/42/1 28/28/1 29/29/1
f 40/40/1 43/43/1 38/38/1
f 38/38/1 43/43/1 44/44/1
f 38/38/1 44/44/1 32/32/1
f 32/32/1 44/44/1 45/45/1
f 32/32/1 45/45/1 30/30/1
f 46/46/2 47/47/2 48/48/3
f 48/48/3 47/47/2 49/49/3
f 48/48/3 49/49/3 50/50/3
f 50/50/3 49/49/3 14/51/3
f 50/50/3 14/51/3 51/52/2
f 51/52/2 14/51/3 6/53/2
f 52/54/4 53/55/5 54/56/4
f 54/56/4 53/55/5 55/57/5
f 15/58/5 28/59/4 56/60/5
f 56/60/5 28/59/4 57/61/4
f 55/57/5 53/55/5 58/62/6
f 55/57/5 58/62/6 59/63/6
f 59/63/6 58/62/6 60/64/7
f 59/63/6 60/64/7 61/65/7
f 61/65/7 60/64/7 62/66/8
f 61/65/7 62/66/8 63/67/8
f 63/67/8 62/66/8 64/68/9
f 63/67/8 64/68/9 65/69/9
f 65/69/9 64/68/9 66/70/10
f 65/69/9 66/70/10 67/71/10
f 67/71/10 66/70/10 68/72/11
f 67/71/10 68/72/11 69/73/11
f 69/73/11 68/72/11 70/74/12
f 69/73/11 70/74/12 71/75/12
f 71/75/12 70/74/12 47/76/2
f 71/75/12 47/76/2 46/77/2
f 15/58/5 56/60/5 72/78/6
f 15/58/5 72/78/6 25/79/6
f 25/79/6 72/78/6 73/80/7
f 25/79/6 73/80/7 24/81/7
f 24/81/7 73/80/7 74/82/8
f 24/81/7 74/82/8 23/83/8
f 23/83/8 74/82/8 75/84/9
f 23/83/8 75/84/9 16/85/9
f 16/85/9 75/84/9 76/86/10
f 16/85/9 76/86/10 17/87/10
f 17/87/10 76/86/10 77/88/11
f 17/87/10 77/88/11 4/89/11
f 4/89/11 77/88/11 78/90/12
f 4/89/11 78/90/12 5/91/12
f 5/91/12 78/90/12 51/92/2
f 5/91/12 51/92/2 6/93/2
f 44/94/13 43/95/14 79/96/13
f 79/96/13 43/95/14 80/97/14
f 81/98/15 82/99/15 83/100/15
f 83/100/15 84/101/15 85/102/15
f 53/103/15 52/104/15 49/105/15
f 68/106/15 66/107/15 64/108/15
f 52/104/15 86/109/15 49/105/15
f 49/105/15 86/109/15 87/110/15
f 49/105/15 87/110/15 88/111/15
f 88/111/15 87/110/15 89/112/15
f 88/111/15 89/112/15 90/113/15
f 85/102/15 91/114/15 83/100/15
f 83/100/15 91/114/15 92/115/15
f 83/100/15 92/115/15 93/116/15
f 64/108/15 62/117/15 60/118/15
f 49/105/15 47/119/15 53/103/15
f 53/103/15 47/119/15 70/120/15
f 53/103/15 70/120/15 68/106/15
f 68/106/15 64/108/15 53/103/15
f 53/103/15 64/108/15 60/118/15
f 53/103/15 60/118/15 58/121/15
f 94/122/15 95/123/15 96/124/15
f 97/125/15 96/124/15 52/104/15
f 52/104/15 96/124/15 98/126/15
f 52/104/15 98/126/15 86/109/15
f 99/127/15 84/101/15 100/128/15
f 100/128/15 84/101/15 83/100/15
f 100/128/15 83/100/15 101/129/15
f 101/129/15 83/100/15 88/111/15
f 101/129/15 88/111/15 102/130/15
f 102/130/15 88/111/15 90/113/15
f 103/131/15 81/98/15 104/132/15
f 104/132/15 81/98/15 83/100/15
f 104/132/15 83/100/15 105/133/15
f 105/133/15 83/100/15 93/116/15
f 106/134/15 94/122/15 107/135/15
f 107/135/15 94/122/15 96/124/15
f 107/135/15 96/124/15 108/136/15
f 108/136/15 96/124/15 97/125/15
f 109/137/15 110/138/15 80/139/15
f 80/139/15 110/138/15 111/140/15
f 80/139/15 111/140/15 79/141/15
f 79/141/15 111/140/15 96/124/15
f 79/141/15 96/124/15 112/142/15
f 112/142/15 96/124/15 95/123/15
f 95/143/16 94/144/5 30/145/16
f 30/145/16 94/144/5 31/146/5
f 97/147/17 52/148/9 3/149/17
f 3/149/17 52/148/9 54/150/9
f 28/151/9 3/149/17 57/152/9
f 57/152/9 3/149/17 54/150/9
f 57/152/9 54/150/9 50/153/9
f 50/153/9 54/150/9 48/154/9
f 48/155/1 54/156/1 46/157/1
f 46/157/1 54/156/1 55/158/1
f 46/157/1 55/158/1 71/159/1
f 55/158/1 59/160/1 61/161/1
f 69/162/1 71/159/1 67/163/1
f 67/163/1 71/159/1 55/158/1
f 67/163/1 55/158/1 65/164/1
f 65/164/1 55/158/1 61/161/1
f 65/164/1 61/161/1 63/165/1
f 57/166/15 50/167/15 56/168/15
f 56/168/15 50/167/15 51/169/15
f 56/168/15 51/169/15 78/170/15
f 78/170/15 77/171/15 56/168/15
f 56/168/15 77/171/15 76/172/15
f 56/168/15 76/172/15 75/173/15
f 75/173/15 74/174/15 56/168/15
f 56/168/15 74/174/15 73/175/15
f 56/168/15 73/175/15 72/176/15
f 97/177/17 3/178/17 2/179/8
f 97/177/17 2/179/8 108/180/8
f 108/180/8 2/179/8 1/181/7
f 108/180/8 1/181/7 107/182/7
f 107/182/7 1/181/7 33/183/6
f 107/182/7 33/183/6 106/184/6
f 106/184/6 33/183/6 31/146/5
f 106/184/6 31/146/5 94/144/5
f 12/185/3 88/186/3 9/187/18
f 9/187/18 88/186/3 83/188/19
f 14/51/9 49/49/9 12/185/9
f 12/185/9 49/49/9 88/186/9
f 9/187/18 83/188/19 82/189/20
f 9/187/18 82/189/20 34/190/20
f 34/190/20 82/189/20 81/191/21
f 34/190/20 81/191/21 26/192/22
f 26/192/22 81/191/21 103/193/23
f 26/192/22 103/193/23 27/194/23
f 27/194/23 103/193/23 104/195/24
f 27/194/23 104/195/24 18/196/24
f 18/196/24 104/195/24 105/197/25
f 18/196/24 105/197/25 19/198/25
f 19/198/25 105/197/25 93/199/26
f 19/198/25 93/199/26 7/200/26
f 96/201/27 111/202/28 32/203/27
f 32/203/27 111/202/28 38/204/28
f 22/205/4 21/206/29 84/207/4
f 84/207/4 21/206/29 85/208/29
f 44/94/13 79/96/13 112/209/30
f 44/94/13 112/209/30 45/210/30
f 45/210/30 112/209/30 95/143/16
f 45/210/30 95/143/16 30/145/16
f 38/204/28 111/202/28 110/211/31
f 38/204/28 110/211/31 39/212/32
f 39/212/32 110/211/31 109/213/33
f 39/212/32 109/213/33 40/214/33
f 40/214/33 109/213/33 80/97/14
f 40/214/33 80/97/14 43/95/14
f 7/200/26 93/199/26 92/215/34
f 7/200/26 92/215/34 8/216/34
f 8/216/34 92/215/34 91/217/35
f 8/216/34 91/217/35 20/218/35
f 20/218/35 91/217/35 85/208/29
f 20/218/35 85/208/29 21/206/29
f 99/219/36 35/220/36 84/207/36
f 84/207/36 35/220/36 22/205/36
f 96/201/27 32/203/27 41/221/37
f 96/201/27 41/221/37 98/222/37
f 98/222/37 41/221/37 42/223/38
f 98/222/37 42/223/38 86/224/38
f 86/224/38 42/223/38 29/225/39
f 86/224/38 29/225/39 87/226/39
f 87/226/39 29/225/39 13/227/40
f 87/226/39 13/227/40 89/228/40
f 89/228/40 13/227/40 11/229/41
f 89/228/40 11/229/41 90/230/41
f 90/230/41 11/229/41 10/231/42
f 90/230/41 10/231/42 102/232/42
f 102/232/42 10/231/42 37/233/43
f 102/232/42 37/233/43 101/234/43
f 101/234/43 37/233/43 36/235/44
f 101/234/43 36/235/44 100/236/44
f 100/236/44 36/235/44 35/220/45
f 100/236/44 35/220/45 99/219/45
