<?xml version="1.0" standalone="no"?>
<!DOCTYPE svg PUBLIC "-//W3C//DTD SVG 1.1//EN" 
  "http://www.w3.org/Graphics/SVG/1.1/DTD/svg11.dtd">
<svg width="2048" height="2048" viewBox="0 0 2048 2048"
     xmlns="http://www.w3.org/2000/svg" version="1.1">
<desc>uv_edit.blend, (Blender 4.2.1 LTS)</desc>
<polygon stroke="black" stroke-width="1" fill="rgb(204, 204, 204)" fill-opacity="1" points="1265.618,1153.040 1245.952,1146.423 1225.251,1147.836 " />
<polygon stroke="black" stroke-width="1" fill="rgb(204, 204, 204)" fill-opacity="1" points="752.269,1172.700 745.653,1192.366 747.065,1213.068 " />
<polygon stroke="black" stroke-width="1" fill="rgb(204, 204, 204)" fill-opacity="1" points="1035.243,1915.527 1042.935,1901.344 916.417,1892.614 " />
<polygon stroke="black" stroke-width="1" fill="rgb(204, 204, 204)" fill-opacity="1" points="1075.967,1627.311 1086.736,1589.982 766.742,1339.966 " />
<polygon stroke="black" stroke-width="1" fill="rgb(204, 204, 204)" fill-opacity="1" points="766.742,1339.966 1086.736,1589.982 1104.054,1553.234 " />
<polygon stroke="black" stroke-width="1" fill="rgb(204, 204, 204)" fill-opacity="1" points="766.742,1339.966 1104.054,1553.234 780.430,1336.259 " />
<polygon stroke="black" stroke-width="1" fill="rgb(204, 204, 204)" fill-opacity="1" points="849.725,1185.264 784.493,1147.836 765.908,1157.063 " />
<polygon stroke="black" stroke-width="1" fill="rgb(204, 204, 204)" fill-opacity="1" points="993.590,1941.259 1016.838,1932.311 1035.243,1915.527 " />
<polygon stroke="black" stroke-width="1" fill="rgb(204, 204, 204)" fill-opacity="1" points="1042.935,1901.344 1046.020,1885.507 916.417,1892.614 " />
<polygon stroke="black" stroke-width="1" fill="rgb(204, 204, 204)" fill-opacity="1" points="916.417,1892.614 1046.020,1885.507 1044.214,1869.474 " />
<polygon stroke="black" stroke-width="1" fill="rgb(204, 204, 204)" fill-opacity="1" points="916.417,1892.614 1044.214,1869.474 1037.558,1844.899 " />
<polygon stroke="black" stroke-width="1" fill="rgb(204, 204, 204)" fill-opacity="1" points="805.194,1146.423 784.493,1147.836 824.860,1153.040 " />
<polygon stroke="black" stroke-width="1" fill="rgb(204, 204, 204)" fill-opacity="1" points="824.860,1153.040 784.493,1147.836 849.725,1185.264 " />
<polygon stroke="black" stroke-width="1" fill="rgb(204, 204, 204)" fill-opacity="1" points="824.860,1153.040 849.725,1185.264 840.497,1166.679 " />
<polygon stroke="black" stroke-width="1" fill="rgb(204, 204, 204)" fill-opacity="1" points="945.516,1931.989 968.681,1941.147 993.590,1941.259 " />
<polygon stroke="black" stroke-width="1" fill="rgb(204, 204, 204)" fill-opacity="1" points="765.908,1157.063 752.269,1172.700 849.725,1185.264 " />
<polygon stroke="black" stroke-width="1" fill="rgb(204, 204, 204)" fill-opacity="1" points="849.725,1185.264 752.269,1172.700 747.065,1213.068 " />
<polygon stroke="black" stroke-width="1" fill="rgb(204, 204, 204)" fill-opacity="1" points="849.725,1185.264 747.065,1213.068 865.943,1245.148 " />
<polygon stroke="black" stroke-width="1" fill="rgb(204, 204, 204)" fill-opacity="1" points="865.943,1245.148 747.065,1213.068 780.430,1336.259 " />
<polygon stroke="black" stroke-width="1" fill="rgb(204, 204, 204)" fill-opacity="1" points="865.943,1245.148 780.430,1336.259 1124.843,1525.155 " />
<polygon stroke="black" stroke-width="1" fill="rgb(204, 204, 204)" fill-opacity="1" points="1124.843,1525.155 780.430,1336.259 1104.054,1553.234 " />
<polygon stroke="black" stroke-width="1" fill="rgb(204, 204, 204)" fill-opacity="1" points="1300.500,1222.253 1290.482,1185.264 1179.542,1490.783 " />
<polygon stroke="black" stroke-width="1" fill="rgb(204, 204, 204)" fill-opacity="1" points="1179.542,1490.783 1290.482,1185.264 1281.255,1166.679 " />
<polygon stroke="black" stroke-width="1" fill="rgb(204, 204, 204)" fill-opacity="1" points="1035.243,1915.527 916.417,1892.614 993.590,1941.259 " />
<polygon stroke="black" stroke-width="1" fill="rgb(204, 204, 204)" fill-opacity="1" points="993.590,1941.259 916.417,1892.614 927.262,1915.039 " />
<polygon stroke="black" stroke-width="1" fill="rgb(204, 204, 204)" fill-opacity="1" points="993.590,1941.259 927.262,1915.039 945.516,1931.989 " />
<polygon stroke="black" stroke-width="1" fill="rgb(204, 204, 204)" fill-opacity="1" points="1037.558,1844.899 1074.286,1777.085 916.417,1892.614 " />
<polygon stroke="black" stroke-width="1" fill="rgb(204, 204, 204)" fill-opacity="1" points="916.417,1892.614 1074.286,1777.085 1068.432,1721.943 " />
<polygon stroke="black" stroke-width="1" fill="rgb(204, 204, 204)" fill-opacity="1" points="916.417,1892.614 1068.432,1721.943 766.742,1339.966 " />
<polygon stroke="black" stroke-width="1" fill="rgb(204, 204, 204)" fill-opacity="1" points="766.742,1339.966 1068.432,1721.943 1069.318,1672.697 " />
<polygon stroke="black" stroke-width="1" fill="rgb(204, 204, 204)" fill-opacity="1" points="766.742,1339.966 1069.318,1672.697 1075.967,1627.311 " />
<polygon stroke="black" stroke-width="1" fill="rgb(204, 204, 204)" fill-opacity="1" points="1206.643,1483.444 1223.052,1475.809 1235.950,1463.115 " />
<polygon stroke="black" stroke-width="1" fill="rgb(204, 204, 204)" fill-opacity="1" points="1281.255,1166.679 1265.618,1153.040 1179.542,1490.783 " />
<polygon stroke="black" stroke-width="1" fill="rgb(204, 204, 204)" fill-opacity="1" points="1179.542,1490.783 1265.618,1153.040 1225.251,1147.836 " />
<polygon stroke="black" stroke-width="1" fill="rgb(204, 204, 204)" fill-opacity="1" points="1179.542,1490.783 1225.251,1147.836 1171.547,1493.303 " />
<polygon stroke="black" stroke-width="1" fill="rgb(204, 204, 204)" fill-opacity="1" points="1171.547,1493.303 1225.251,1147.836 865.943,1245.148 " />
<polygon stroke="black" stroke-width="1" fill="rgb(204, 204, 204)" fill-opacity="1" points="1171.547,1493.303 865.943,1245.148 1147.643,1505.484 " />
<polygon stroke="black" stroke-width="1" fill="rgb(204, 204, 204)" fill-opacity="1" points="1147.643,1505.484 865.943,1245.148 1124.843,1525.155 " />
<polygon stroke="black" stroke-width="1" fill="rgb(204, 204, 204)" fill-opacity="1" points="1235.950,1463.115 1243.844,1446.830 1206.643,1483.444 " />
<polygon stroke="black" stroke-width="1" fill="rgb(204, 204, 204)" fill-opacity="1" points="1206.643,1483.444 1243.844,1446.830 1300.273,1250.870 " />
<polygon stroke="black" stroke-width="1" fill="rgb(204, 204, 204)" fill-opacity="1" points="1206.643,1483.444 1300.273,1250.870 1179.542,1490.783 " />
<polygon stroke="black" stroke-width="1" fill="rgb(204, 204, 204)" fill-opacity="1" points="1179.542,1490.783 1300.273,1250.870 1302.347,1236.577 " />
<polygon stroke="black" stroke-width="1" fill="rgb(204, 204, 204)" fill-opacity="1" points="1179.542,1490.783 1302.347,1236.577 1300.500,1222.253 " />
<polygon stroke="black" stroke-width="1" fill="rgb(204, 204, 204)" fill-opacity="1" points="432.461,1941.259 532.171,1941.259 432.461,1879.217 " />
<polygon stroke="black" stroke-width="1" fill="rgb(204, 204, 204)" fill-opacity="1" points="432.461,1879.217 532.171,1941.259 532.171,1813.630 " />
<polygon stroke="black" stroke-width="1" fill="rgb(204, 204, 204)" fill-opacity="1" points="432.461,1879.217 532.171,1813.630 206.451,1879.217 " />
<polygon stroke="black" stroke-width="1" fill="rgb(204, 204, 204)" fill-opacity="1" points="206.451,1879.217 532.171,1813.630 106.741,1813.630 " />
<polygon stroke="black" stroke-width="1" fill="rgb(204, 204, 204)" fill-opacity="1" points="206.451,1879.217 106.741,1813.630 206.451,1941.259 " />
<polygon stroke="black" stroke-width="1" fill="rgb(204, 204, 204)" fill-opacity="1" points="206.451,1941.259 106.741,1813.630 106.741,1941.259 " />
<polygon stroke="black" stroke-width="1" fill="rgb(204, 204, 204)" fill-opacity="1" points="1615.539,1249.169 1615.539,1187.127 1515.829,1249.169 " />
<polygon stroke="black" stroke-width="1" fill="rgb(204, 204, 204)" fill-opacity="1" points="1515.829,1249.169 1615.539,1187.127 1515.829,1187.127 " />
<polygon stroke="black" stroke-width="1" fill="rgb(204, 204, 204)" fill-opacity="1" points="1515.829,745.608 1515.829,807.650 1615.539,745.608 " />
<polygon stroke="black" stroke-width="1" fill="rgb(204, 204, 204)" fill-opacity="1" points="1615.539,745.608 1515.829,807.650 1615.539,807.650 " />
<polygon stroke="black" stroke-width="1" fill="rgb(204, 204, 204)" fill-opacity="1" points="1515.829,1187.127 1615.539,1187.127 1615.539,1166.377 " />
<polygon stroke="black" stroke-width="1" fill="rgb(204, 204, 204)" fill-opacity="1" points="1515.829,1187.127 1615.539,1166.377 1515.829,1166.377 " />
<polygon stroke="black" stroke-width="1" fill="rgb(204, 204, 204)" fill-opacity="1" points="1515.829,1166.377 1615.539,1166.377 1615.539,1145.628 " />
<polygon stroke="black" stroke-width="1" fill="rgb(204, 204, 204)" fill-opacity="1" points="1515.829,1166.377 1615.539,1145.628 1515.829,1145.628 " />
<polygon stroke="black" stroke-width="1" fill="rgb(204, 204, 204)" fill-opacity="1" points="1515.829,1145.628 1615.539,1145.628 1615.539,1124.879 " />
<polygon stroke="black" stroke-width="1" fill="rgb(204, 204, 204)" fill-opacity="1" points="1515.829,1145.628 1615.539,1124.879 1515.829,1124.878 " />
<polygon stroke="black" stroke-width="1" fill="rgb(204, 204, 204)" fill-opacity="1" points="1515.829,1124.878 1615.539,1124.879 1615.539,1104.129 " />
<polygon stroke="black" stroke-width="1" fill="rgb(204, 204, 204)" fill-opacity="1" points="1515.829,1124.878 1615.539,1104.129 1515.829,1104.129 " />
<polygon stroke="black" stroke-width="1" fill="rgb(204, 204, 204)" fill-opacity="1" points="1515.829,1104.129 1615.539,1104.129 1615.539,1083.380 " />
<polygon stroke="black" stroke-width="1" fill="rgb(204, 204, 204)" fill-opacity="1" points="1515.829,1104.129 1615.539,1083.380 1515.829,1083.380 " />
<polygon stroke="black" stroke-width="1" fill="rgb(204, 204, 204)" fill-opacity="1" points="1515.829,1083.380 1615.539,1083.380 1615.539,1062.630 " />
<polygon stroke="black" stroke-width="1" fill="rgb(204, 204, 204)" fill-opacity="1" points="1515.829,1083.380 1615.539,1062.630 1515.829,1062.630 " />
<polygon stroke="black" stroke-width="1" fill="rgb(204, 204, 204)" fill-opacity="1" points="1515.829,1062.630 1615.539,1062.630 1615.539,1041.881 " />
<polygon stroke="black" stroke-width="1" fill="rgb(204, 204, 204)" fill-opacity="1" points="1515.829,1062.630 1615.539,1041.881 1515.829,1041.881 " />
<polygon stroke="black" stroke-width="1" fill="rgb(204, 204, 204)" fill-opacity="1" points="1515.829,1041.881 1615.539,1041.881 1615.539,1021.132 " />
<polygon stroke="black" stroke-width="1" fill="rgb(204, 204, 204)" fill-opacity="1" points="1515.829,1041.881 1615.539,1021.132 1515.829,1021.132 " />
<polygon stroke="black" stroke-width="1" fill="rgb(204, 204, 204)" fill-opacity="1" points="1515.829,745.608 1615.539,745.608 1615.539,724.859 " />
<polygon stroke="black" stroke-width="1" fill="rgb(204, 204, 204)" fill-opacity="1" points="1515.829,745.608 1615.539,724.859 1515.829,724.859 " />
<polygon stroke="black" stroke-width="1" fill="rgb(204, 204, 204)" fill-opacity="1" points="1515.829,724.859 1615.539,724.859 1615.539,704.110 " />
<polygon stroke="black" stroke-width="1" fill="rgb(204, 204, 204)" fill-opacity="1" points="1515.829,724.859 1615.539,704.110 1515.829,704.110 " />
<polygon stroke="black" stroke-width="1" fill="rgb(204, 204, 204)" fill-opacity="1" points="1515.829,704.110 1615.539,704.110 1615.539,683.360 " />
<polygon stroke="black" stroke-width="1" fill="rgb(204, 204, 204)" fill-opacity="1" points="1515.829,704.110 1615.539,683.360 1515.829,683.360 " />
<polygon stroke="black" stroke-width="1" fill="rgb(204, 204, 204)" fill-opacity="1" points="1515.829,683.360 1615.539,683.360 1615.539,662.611 " />
<polygon stroke="black" stroke-width="1" fill="rgb(204, 204, 204)" fill-opacity="1" points="1515.829,683.360 1615.539,662.611 1515.829,662.611 " />
<polygon stroke="black" stroke-width="1" fill="rgb(204, 204, 204)" fill-opacity="1" points="1515.829,662.611 1615.539,662.611 1615.539,641.862 " />
<polygon stroke="black" stroke-width="1" fill="rgb(204, 204, 204)" fill-opacity="1" points="1515.829,662.611 1615.539,641.862 1515.829,641.862 " />
<polygon stroke="black" stroke-width="1" fill="rgb(204, 204, 204)" fill-opacity="1" points="1515.829,641.862 1615.539,641.862 1615.539,621.112 " />
<polygon stroke="black" stroke-width="1" fill="rgb(204, 204, 204)" fill-opacity="1" points="1515.829,641.862 1615.539,621.112 1515.829,621.112 " />
<polygon stroke="black" stroke-width="1" fill="rgb(204, 204, 204)" fill-opacity="1" points="1515.829,621.112 1615.539,621.112 1615.539,600.363 " />
<polygon stroke="black" stroke-width="1" fill="rgb(204, 204, 204)" fill-opacity="1" points="1515.829,621.112 1615.539,600.363 1515.829,600.363 " />
<polygon stroke="black" stroke-width="1" fill="rgb(204, 204, 204)" fill-opacity="1" points="1515.829,600.363 1615.539,600.363 1615.539,579.614 " />
<polygon stroke="black" stroke-width="1" fill="rgb(204, 204, 204)" fill-opacity="1" points="1515.829,600.363 1615.539,579.614 1515.829,579.614 " />
<polygon stroke="black" stroke-width="1" fill="rgb(204, 204, 204)" fill-opacity="1" points="106.741,309.841 106.741,513.763 532.171,309.841 " />
<polygon stroke="black" stroke-width="1" fill="rgb(204, 204, 204)" fill-opacity="1" points="532.171,309.841 106.741,513.763 532.171,513.763 " />
<polygon stroke="black" stroke-width="1" fill="rgb(204, 204, 204)" fill-opacity="1" points="945.516,147.376 927.263,164.326 916.418,186.751 " />
<polygon stroke="black" stroke-width="1" fill="rgb(204, 204, 204)" fill-opacity="1" points="916.418,186.751 1037.558,234.467 1044.214,209.891 " />
<polygon stroke="black" stroke-width="1" fill="rgb(204, 204, 204)" fill-opacity="1" points="849.725,894.101 865.943,834.217 780.430,743.107 " />
<polygon stroke="black" stroke-width="1" fill="rgb(204, 204, 204)" fill-opacity="1" points="752.269,906.665 765.909,922.302 784.493,931.529 " />
<polygon stroke="black" stroke-width="1" fill="rgb(204, 204, 204)" fill-opacity="1" points="865.943,834.217 1147.643,573.881 780.430,743.107 " />
<polygon stroke="black" stroke-width="1" fill="rgb(204, 204, 204)" fill-opacity="1" points="780.430,743.107 1147.643,573.881 1124.844,554.211 " />
<polygon stroke="black" stroke-width="1" fill="rgb(204, 204, 204)" fill-opacity="1" points="780.430,743.107 1124.844,554.211 766.742,739.400 " />
<polygon stroke="black" stroke-width="1" fill="rgb(204, 204, 204)" fill-opacity="1" points="766.742,739.400 1124.844,554.211 1104.054,526.132 " />
<polygon stroke="black" stroke-width="1" fill="rgb(204, 204, 204)" fill-opacity="1" points="766.742,739.400 1104.054,526.132 1086.736,489.383 " />
<polygon stroke="black" stroke-width="1" fill="rgb(204, 204, 204)" fill-opacity="1" points="1044.214,209.891 1046.021,193.858 916.418,186.751 " />
<polygon stroke="black" stroke-width="1" fill="rgb(204, 204, 204)" fill-opacity="1" points="916.418,186.751 1046.021,193.858 1042.936,178.021 " />
<polygon stroke="black" stroke-width="1" fill="rgb(204, 204, 204)" fill-opacity="1" points="916.418,186.751 1042.936,178.021 1035.244,163.838 " />
<polygon stroke="black" stroke-width="1" fill="rgb(204, 204, 204)" fill-opacity="1" points="784.493,931.529 805.194,932.942 824.860,926.325 " />
<polygon stroke="black" stroke-width="1" fill="rgb(204, 204, 204)" fill-opacity="1" points="780.430,743.107 747.065,866.298 849.725,894.101 " />
<polygon stroke="black" stroke-width="1" fill="rgb(204, 204, 204)" fill-opacity="1" points="849.725,894.101 747.065,866.298 745.653,886.999 " />
<polygon stroke="black" stroke-width="1" fill="rgb(204, 204, 204)" fill-opacity="1" points="849.725,894.101 745.653,886.999 752.269,906.665 " />
<polygon stroke="black" stroke-width="1" fill="rgb(204, 204, 204)" fill-opacity="1" points="752.269,906.665 784.493,931.529 849.725,894.101 " />
<polygon stroke="black" stroke-width="1" fill="rgb(204, 204, 204)" fill-opacity="1" points="849.725,894.101 784.493,931.529 824.860,926.325 " />
<polygon stroke="black" stroke-width="1" fill="rgb(204, 204, 204)" fill-opacity="1" points="849.725,894.101 824.860,926.325 840.497,912.686 " />
<polygon stroke="black" stroke-width="1" fill="rgb(204, 204, 204)" fill-opacity="1" points="1290.482,894.101 1300.500,857.112 1179.543,588.582 " />
<polygon stroke="black" stroke-width="1" fill="rgb(204, 204, 204)" fill-opacity="1" points="1225.251,931.529 1179.543,588.582 865.943,834.217 " />
<polygon stroke="black" stroke-width="1" fill="rgb(204, 204, 204)" fill-opacity="1" points="865.943,834.217 1179.543,588.582 1171.547,586.062 " />
<polygon stroke="black" stroke-width="1" fill="rgb(204, 204, 204)" fill-opacity="1" points="865.943,834.217 1171.547,586.062 1147.643,573.881 " />
<polygon stroke="black" stroke-width="1" fill="rgb(204, 204, 204)" fill-opacity="1" points="1074.287,302.281 1037.558,234.467 1068.432,357.422 " />
<polygon stroke="black" stroke-width="1" fill="rgb(204, 204, 204)" fill-opacity="1" points="1068.432,357.422 1037.558,234.467 916.418,186.751 " />
<polygon stroke="black" stroke-width="1" fill="rgb(204, 204, 204)" fill-opacity="1" points="1068.432,357.422 916.418,186.751 1069.318,406.668 " />
<polygon stroke="black" stroke-width="1" fill="rgb(204, 204, 204)" fill-opacity="1" points="1069.318,406.668 916.418,186.751 766.742,739.400 " />
<polygon stroke="black" stroke-width="1" fill="rgb(204, 204, 204)" fill-opacity="1" points="1069.318,406.668 766.742,739.400 1075.967,452.054 " />
<polygon stroke="black" stroke-width="1" fill="rgb(204, 204, 204)" fill-opacity="1" points="1075.967,452.054 766.742,739.400 1086.736,489.383 " />
<polygon stroke="black" stroke-width="1" fill="rgb(204, 204, 204)" fill-opacity="1" points="968.681,138.218 945.516,147.376 993.591,138.106 " />
<polygon stroke="black" stroke-width="1" fill="rgb(204, 204, 204)" fill-opacity="1" points="993.591,138.106 945.516,147.376 916.418,186.751 " />
<polygon stroke="black" stroke-width="1" fill="rgb(204, 204, 204)" fill-opacity="1" points="993.591,138.106 916.418,186.751 1016.838,147.054 " />
<polygon stroke="black" stroke-width="1" fill="rgb(204, 204, 204)" fill-opacity="1" points="1016.838,147.054 916.418,186.751 1035.244,163.838 " />
<polygon stroke="black" stroke-width="1" fill="rgb(204, 204, 204)" fill-opacity="1" points="1281.255,912.686 1290.482,894.101 1265.618,926.325 " />
<polygon stroke="black" stroke-width="1" fill="rgb(204, 204, 204)" fill-opacity="1" points="1265.618,926.325 1290.482,894.101 1179.543,588.582 " />
<polygon stroke="black" stroke-width="1" fill="rgb(204, 204, 204)" fill-opacity="1" points="1265.618,926.325 1179.543,588.582 1245.952,932.942 " />
<polygon stroke="black" stroke-width="1" fill="rgb(204, 204, 204)" fill-opacity="1" points="1245.952,932.942 1179.543,588.582 1225.251,931.529 " />
<polygon stroke="black" stroke-width="1" fill="rgb(204, 204, 204)" fill-opacity="1" points="1235.950,616.251 1223.052,603.556 1243.844,632.536 " />
<polygon stroke="black" stroke-width="1" fill="rgb(204, 204, 204)" fill-opacity="1" points="1243.844,632.536 1223.052,603.556 1206.644,595.922 " />
<polygon stroke="black" stroke-width="1" fill="rgb(204, 204, 204)" fill-opacity="1" points="1243.844,632.536 1206.644,595.922 1300.273,828.495 " />
<polygon stroke="black" stroke-width="1" fill="rgb(204, 204, 204)" fill-opacity="1" points="1300.273,828.495 1206.644,595.922 1179.543,588.582 " />
<polygon stroke="black" stroke-width="1" fill="rgb(204, 204, 204)" fill-opacity="1" points="1300.273,828.495 1179.543,588.582 1302.348,842.788 " />
<polygon stroke="black" stroke-width="1" fill="rgb(204, 204, 204)" fill-opacity="1" points="1302.348,842.788 1179.543,588.582 1300.500,857.112 " />
<polygon stroke="black" stroke-width="1" fill="rgb(204, 204, 204)" fill-opacity="1" points="532.171,280.956 532.171,242.634 106.741,280.956 " />
<polygon stroke="black" stroke-width="1" fill="rgb(204, 204, 204)" fill-opacity="1" points="106.741,280.956 532.171,242.634 106.741,242.634 " />
<polygon stroke="black" stroke-width="1" fill="rgb(204, 204, 204)" fill-opacity="1" points="1515.829,1462.650 1515.829,1834.902 1941.259,1462.650 " />
<polygon stroke="black" stroke-width="1" fill="rgb(204, 204, 204)" fill-opacity="1" points="1941.259,1462.650 1515.829,1834.902 1615.539,1834.902 " />
<polygon stroke="black" stroke-width="1" fill="rgb(204, 204, 204)" fill-opacity="1" points="1941.259,1834.902 1941.259,1462.650 1841.549,1834.902 " />
<polygon stroke="black" stroke-width="1" fill="rgb(204, 204, 204)" fill-opacity="1" points="1841.549,1834.902 1941.259,1462.650 1615.539,1834.902 " />
<polygon stroke="black" stroke-width="1" fill="rgb(204, 204, 204)" fill-opacity="1" points="1841.549,1834.902 1615.539,1834.902 1841.549,1941.259 " />
<polygon stroke="black" stroke-width="1" fill="rgb(204, 204, 204)" fill-opacity="1" points="1841.549,1941.259 1615.539,1834.902 1615.539,1941.259 " />
<polygon stroke="black" stroke-width="1" fill="rgb(204, 204, 204)" fill-opacity="1" points="1622.187,250.912 1515.829,250.912 1622.187,312.953 " />
<polygon stroke="black" stroke-width="1" fill="rgb(204, 204, 204)" fill-opacity="1" points="1622.187,312.953 1515.829,250.912 1515.829,312.953 " />
<polygon stroke="black" stroke-width="1" fill="rgb(204, 204, 204)" fill-opacity="1" points="1622.187,312.953 1515.829,312.953 1618.139,333.304 " />
<polygon stroke="black" stroke-width="1" fill="rgb(204, 204, 204)" fill-opacity="1" points="1515.829,312.953 1519.877,333.304 1531.405,350.557 " />
<polygon stroke="black" stroke-width="1" fill="rgb(204, 204, 204)" fill-opacity="1" points="1606.611,350.557 1618.139,333.304 1589.358,362.084 " />
<polygon stroke="black" stroke-width="1" fill="rgb(204, 204, 204)" fill-opacity="1" points="1589.358,362.084 1618.139,333.304 1515.829,312.953 " />
<polygon stroke="black" stroke-width="1" fill="rgb(204, 204, 204)" fill-opacity="1" points="1589.358,362.084 1515.829,312.953 1569.008,366.132 " />
<polygon stroke="black" stroke-width="1" fill="rgb(204, 204, 204)" fill-opacity="1" points="1569.008,366.132 1515.829,312.953 1531.405,350.557 " />
<polygon stroke="black" stroke-width="1" fill="rgb(204, 204, 204)" fill-opacity="1" points="1569.008,366.132 1531.405,350.557 1548.657,362.084 " />
<polygon stroke="black" stroke-width="1" fill="rgb(204, 204, 204)" fill-opacity="1" points="1829.020,1249.169 1935.378,1249.169 1829.020,1187.127 " />
<polygon stroke="black" stroke-width="1" fill="rgb(204, 204, 204)" fill-opacity="1" points="1829.020,1187.127 1935.378,1249.169 1935.378,1187.127 " />
<polygon stroke="black" stroke-width="1" fill="rgb(204, 204, 204)" fill-opacity="1" points="1829.020,1187.127 1935.378,1187.127 1931.330,1166.776 " />
<polygon stroke="black" stroke-width="1" fill="rgb(204, 204, 204)" fill-opacity="1" points="1931.330,1166.776 1919.802,1149.523 1829.020,1187.127 " />
<polygon stroke="black" stroke-width="1" fill="rgb(204, 204, 204)" fill-opacity="1" points="1829.020,1187.127 1919.802,1149.523 1902.550,1137.996 " />
<polygon stroke="black" stroke-width="1" fill="rgb(204, 204, 204)" fill-opacity="1" points="1829.020,1187.127 1902.550,1137.996 1882.199,1133.948 " />
<polygon stroke="black" stroke-width="1" fill="rgb(204, 204, 204)" fill-opacity="1" points="1882.199,1133.948 1861.849,1137.996 1829.020,1187.127 " />
<polygon stroke="black" stroke-width="1" fill="rgb(204, 204, 204)" fill-opacity="1" points="1829.020,1187.127 1861.849,1137.996 1844.596,1149.523 " />
<polygon stroke="black" stroke-width="1" fill="rgb(204, 204, 204)" fill-opacity="1" points="1829.020,1187.127 1844.596,1149.523 1833.068,1166.776 " />
<polygon stroke="black" stroke-width="1" fill="rgb(204, 204, 204)" fill-opacity="1" points="532.171,159.637 106.741,159.637 106.741,180.386 " />
<polygon stroke="black" stroke-width="1" fill="rgb(204, 204, 204)" fill-opacity="1" points="532.171,159.637 106.741,180.386 532.171,180.386 " />
<polygon stroke="black" stroke-width="1" fill="rgb(204, 204, 204)" fill-opacity="1" points="532.171,180.386 106.741,180.386 106.741,201.135 " />
<polygon stroke="black" stroke-width="1" fill="rgb(204, 204, 204)" fill-opacity="1" points="532.171,180.386 106.741,201.135 532.171,201.135 " />
<polygon stroke="black" stroke-width="1" fill="rgb(204, 204, 204)" fill-opacity="1" points="532.171,201.135 106.741,201.135 106.741,221.885 " />
<polygon stroke="black" stroke-width="1" fill="rgb(204, 204, 204)" fill-opacity="1" points="532.171,201.135 106.741,221.885 532.171,221.885 " />
<polygon stroke="black" stroke-width="1" fill="rgb(204, 204, 204)" fill-opacity="1" points="532.171,221.885 106.741,221.885 106.741,242.634 " />
<polygon stroke="black" stroke-width="1" fill="rgb(204, 204, 204)" fill-opacity="1" points="532.171,221.885 106.741,242.634 532.171,242.634 " />
<polygon stroke="black" stroke-width="1" fill="rgb(204, 204, 204)" fill-opacity="1" points="106.741,1799.449 532.171,1799.449 106.741,1226.890 " />
<polygon stroke="black" stroke-width="1" fill="rgb(204, 204, 204)" fill-opacity="1" points="106.741,1226.890 532.171,1799.449 532.171,1226.890 " />
<polygon stroke="black" stroke-width="1" fill="rgb(204, 204, 204)" fill-opacity="1" points="106.741,1813.630 532.171,1813.630 106.741,1799.449 " />
<polygon stroke="black" stroke-width="1" fill="rgb(204, 204, 204)" fill-opacity="1" points="106.741,1799.449 532.171,1813.630 532.171,1799.449 " />
<polygon stroke="black" stroke-width="1" fill="rgb(204, 204, 204)" fill-opacity="1" points="106.741,1226.890 532.171,1226.890 532.171,1201.981 " />
<polygon stroke="black" stroke-width="1" fill="rgb(204, 204, 204)" fill-opacity="1" points="106.741,1226.890 532.171,1201.981 106.741,1201.981 " />
<polygon stroke="black" stroke-width="1" fill="rgb(204, 204, 204)" fill-opacity="1" points="106.741,1201.981 532.171,1201.981 532.171,1177.071 " />
<polygon stroke="black" stroke-width="1" fill="rgb(204, 204, 204)" fill-opacity="1" points="106.741,1201.981 532.171,1177.071 106.741,1177.071 " />
<polygon stroke="black" stroke-width="1" fill="rgb(204, 204, 204)" fill-opacity="1" points="106.741,1177.071 532.171,1177.071 532.171,1152.161 " />
<polygon stroke="black" stroke-width="1" fill="rgb(204, 204, 204)" fill-opacity="1" points="106.741,1177.071 532.171,1152.161 106.741,1152.161 " />
<polygon stroke="black" stroke-width="1" fill="rgb(204, 204, 204)" fill-opacity="1" points="106.741,1152.161 532.171,1152.161 532.171,1127.252 " />
<polygon stroke="black" stroke-width="1" fill="rgb(204, 204, 204)" fill-opacity="1" points="106.741,1152.161 532.171,1127.252 106.741,1127.252 " />
<polygon stroke="black" stroke-width="1" fill="rgb(204, 204, 204)" fill-opacity="1" points="106.741,1127.252 532.171,1127.252 532.171,1102.342 " />
<polygon stroke="black" stroke-width="1" fill="rgb(204, 204, 204)" fill-opacity="1" points="106.741,1127.252 532.171,1102.342 106.741,1102.342 " />
<polygon stroke="black" stroke-width="1" fill="rgb(204, 204, 204)" fill-opacity="1" points="106.741,1102.342 532.171,1102.342 532.171,1077.432 " />
<polygon stroke="black" stroke-width="1" fill="rgb(204, 204, 204)" fill-opacity="1" points="106.741,1102.342 532.171,1077.432 106.741,1077.432 " />
<polygon stroke="black" stroke-width="1" fill="rgb(204, 204, 204)" fill-opacity="1" points="532.171,596.133 532.171,568.056 106.741,596.133 " />
<polygon stroke="black" stroke-width="1" fill="rgb(204, 204, 204)" fill-opacity="1" points="106.741,596.133 532.171,568.056 106.741,568.056 " />
<polygon stroke="black" stroke-width="1" fill="rgb(204, 204, 204)" fill-opacity="1" points="106.741,1003.568 106.741,1029.029 532.171,1003.568 " />
<polygon stroke="black" stroke-width="1" fill="rgb(204, 204, 204)" fill-opacity="1" points="532.171,1003.568 106.741,1029.029 532.171,1029.029 " />
<polygon stroke="black" stroke-width="1" fill="rgb(204, 204, 204)" fill-opacity="1" points="106.741,309.841 532.171,309.841 532.171,295.399 " />
<polygon stroke="black" stroke-width="1" fill="rgb(204, 204, 204)" fill-opacity="1" points="106.741,309.841 532.171,295.399 106.741,295.399 " />
<polygon stroke="black" stroke-width="1" fill="rgb(204, 204, 204)" fill-opacity="1" points="106.741,295.399 532.171,295.399 532.171,280.956 " />
<polygon stroke="black" stroke-width="1" fill="rgb(204, 204, 204)" fill-opacity="1" points="106.741,295.399 532.171,280.956 106.741,280.956 " />
<polygon stroke="black" stroke-width="1" fill="rgb(204, 204, 204)" fill-opacity="1" points="106.741,568.056 532.171,568.056 532.171,549.958 " />
<polygon stroke="black" stroke-width="1" fill="rgb(204, 204, 204)" fill-opacity="1" points="106.741,568.056 532.171,549.958 106.741,549.958 " />
<polygon stroke="black" stroke-width="1" fill="rgb(204, 204, 204)" fill-opacity="1" points="106.741,549.958 532.171,549.958 532.171,531.861 " />
<polygon stroke="black" stroke-width="1" fill="rgb(204, 204, 204)" fill-opacity="1" points="106.741,549.958 532.171,531.861 106.741,531.861 " />
<polygon stroke="black" stroke-width="1" fill="rgb(204, 204, 204)" fill-opacity="1" points="106.741,531.861 532.171,531.861 532.171,513.763 " />
<polygon stroke="black" stroke-width="1" fill="rgb(204, 204, 204)" fill-opacity="1" points="106.741,531.861 532.171,513.763 106.741,513.763 " />
<polygon stroke="black" stroke-width="1" fill="rgb(204, 204, 204)" fill-opacity="1" points="106.741,1077.432 532.171,1077.432 532.171,1061.298 " />
<polygon stroke="black" stroke-width="1" fill="rgb(204, 204, 204)" fill-opacity="1" points="106.741,1077.432 532.171,1061.298 106.741,1061.298 " />
<polygon stroke="black" stroke-width="1" fill="rgb(204, 204, 204)" fill-opacity="1" points="106.741,1061.298 532.171,1061.298 532.171,1045.163 " />
<polygon stroke="black" stroke-width="1" fill="rgb(204, 204, 204)" fill-opacity="1" points="106.741,1061.298 532.171,1045.163 106.741,1045.163 " />
<polygon stroke="black" stroke-width="1" fill="rgb(204, 204, 204)" fill-opacity="1" points="106.741,1045.163 532.171,1045.163 532.171,1029.029 " />
<polygon stroke="black" stroke-width="1" fill="rgb(204, 204, 204)" fill-opacity="1" points="106.741,1045.163 532.171,1029.029 106.741,1029.029 " />
<polygon stroke="black" stroke-width="1" fill="rgb(204, 204, 204)" fill-opacity="1" points="532.171,926.447 106.741,926.447 532.171,1003.568 " />
<polygon stroke="black" stroke-width="1" fill="rgb(204, 204, 204)" fill-opacity="1" points="532.171,1003.568 106.741,926.447 106.741,1003.568 " />
<polygon stroke="black" stroke-width="1" fill="rgb(204, 204, 204)" fill-opacity="1" points="532.171,596.133 106.741,596.133 106.741,604.516 " />
<polygon stroke="black" stroke-width="1" fill="rgb(204, 204, 204)" fill-opacity="1" points="532.171,596.133 106.741,604.516 532.171,604.516 " />
<polygon stroke="black" stroke-width="1" fill="rgb(204, 204, 204)" fill-opacity="1" points="532.171,604.516 106.741,604.516 106.741,631.345 " />
<polygon stroke="black" stroke-width="1" fill="rgb(204, 204, 204)" fill-opacity="1" points="532.171,604.516 106.741,631.345 532.171,631.345 " />
<polygon stroke="black" stroke-width="1" fill="rgb(204, 204, 204)" fill-opacity="1" points="532.171,631.345 106.741,631.345 106.741,661.457 " />
<polygon stroke="black" stroke-width="1" fill="rgb(204, 204, 204)" fill-opacity="1" points="532.171,631.345 106.741,661.457 532.171,661.457 " />
<polygon stroke="black" stroke-width="1" fill="rgb(204, 204, 204)" fill-opacity="1" points="532.171,661.457 106.741,661.457 106.741,696.395 " />
<polygon stroke="black" stroke-width="1" fill="rgb(204, 204, 204)" fill-opacity="1" points="532.171,661.457 106.741,696.395 532.171,696.395 " />
<polygon stroke="black" stroke-width="1" fill="rgb(204, 204, 204)" fill-opacity="1" points="532.171,696.395 106.741,696.395 106.741,737.019 " />
<polygon stroke="black" stroke-width="1" fill="rgb(204, 204, 204)" fill-opacity="1" points="532.171,696.395 106.741,737.019 532.171,737.019 " />
<polygon stroke="black" stroke-width="1" fill="rgb(204, 204, 204)" fill-opacity="1" points="532.171,737.019 106.741,737.019 106.741,775.870 " />
<polygon stroke="black" stroke-width="1" fill="rgb(204, 204, 204)" fill-opacity="1" points="532.171,737.019 106.741,775.870 532.171,775.870 " />
<polygon stroke="black" stroke-width="1" fill="rgb(204, 204, 204)" fill-opacity="1" points="532.171,775.870 106.741,775.870 106.741,821.741 " />
<polygon stroke="black" stroke-width="1" fill="rgb(204, 204, 204)" fill-opacity="1" points="532.171,775.870 106.741,821.741 532.171,821.741 " />
<polygon stroke="black" stroke-width="1" fill="rgb(204, 204, 204)" fill-opacity="1" points="532.171,821.741 106.741,821.741 106.741,870.995 " />
<polygon stroke="black" stroke-width="1" fill="rgb(204, 204, 204)" fill-opacity="1" points="532.171,821.741 106.741,870.995 532.171,870.995 " />
<polygon stroke="black" stroke-width="1" fill="rgb(204, 204, 204)" fill-opacity="1" points="532.171,870.995 106.741,870.995 106.741,926.447 " />
<polygon stroke="black" stroke-width="1" fill="rgb(204, 204, 204)" fill-opacity="1" points="532.171,870.995 106.741,926.447 532.171,926.447 " />

</svg>
