<?xml version="1.0" standalone="no"?>
<!DOCTYPE svg PUBLIC "-//W3C//DTD SVG 1.1//EN" 
  "http://www.w3.org/Graphics/SVG/1.1/DTD/svg11.dtd">
<svg width="2048" height="2048" viewBox="0 0 2048 2048"
     xmlns="http://www.w3.org/2000/svg" version="1.1">
<desc>uv_edit.blend, (Blender 4.2.1 LTS)</desc>
<polygon stroke="black" stroke-width="1" fill="rgb(204, 204, 204)" fill-opacity="1" points="523.075,900.712 516.551,920.103 517.944,940.515 " />
<polygon stroke="black" stroke-width="1" fill="rgb(204, 204, 204)" fill-opacity="1" points="542.460,1406.884 561.852,1413.408 582.263,1412.015 " />
<polygon stroke="black" stroke-width="1" fill="rgb(204, 204, 204)" fill-opacity="1" points="1274.902,1127.866 1260.918,1120.281 1252.310,1245.030 " />
<polygon stroke="black" stroke-width="1" fill="rgb(204, 204, 204)" fill-opacity="1" points="990.716,1087.711 953.909,1077.093 707.388,1392.614 " />
<polygon stroke="black" stroke-width="1" fill="rgb(204, 204, 204)" fill-opacity="1" points="707.388,1392.614 953.909,1077.093 917.674,1060.017 " />
<polygon stroke="black" stroke-width="1" fill="rgb(204, 204, 204)" fill-opacity="1" points="707.388,1392.614 917.674,1060.017 703.732,1379.117 " />
<polygon stroke="black" stroke-width="1" fill="rgb(204, 204, 204)" fill-opacity="1" points="554.849,1310.791 517.944,1375.110 527.042,1393.435 " />
<polygon stroke="black" stroke-width="1" fill="rgb(204, 204, 204)" fill-opacity="1" points="1300.275,1168.936 1291.452,1146.014 1274.902,1127.866 " />
<polygon stroke="black" stroke-width="1" fill="rgb(204, 204, 204)" fill-opacity="1" points="1260.918,1120.281 1245.302,1117.239 1252.310,1245.030 " />
<polygon stroke="black" stroke-width="1" fill="rgb(204, 204, 204)" fill-opacity="1" points="1252.310,1245.030 1245.302,1117.239 1229.493,1119.020 " />
<polygon stroke="black" stroke-width="1" fill="rgb(204, 204, 204)" fill-opacity="1" points="1252.310,1245.030 1229.493,1119.020 1205.261,1125.583 " />
<polygon stroke="black" stroke-width="1" fill="rgb(204, 204, 204)" fill-opacity="1" points="516.551,1354.698 517.944,1375.110 523.075,1335.307 " />
<polygon stroke="black" stroke-width="1" fill="rgb(204, 204, 204)" fill-opacity="1" points="523.075,1335.307 517.944,1375.110 554.849,1310.791 " />
<polygon stroke="black" stroke-width="1" fill="rgb(204, 204, 204)" fill-opacity="1" points="523.075,1335.307 554.849,1310.791 536.524,1319.889 " />
<polygon stroke="black" stroke-width="1" fill="rgb(204, 204, 204)" fill-opacity="1" points="1291.135,1216.339 1300.164,1193.497 1300.275,1168.936 " />
<polygon stroke="black" stroke-width="1" fill="rgb(204, 204, 204)" fill-opacity="1" points="527.042,1393.435 542.460,1406.884 554.849,1310.791 " />
<polygon stroke="black" stroke-width="1" fill="rgb(204, 204, 204)" fill-opacity="1" points="554.849,1310.791 542.460,1406.884 582.263,1412.015 " />
<polygon stroke="black" stroke-width="1" fill="rgb(204, 204, 204)" fill-opacity="1" points="554.849,1310.791 582.263,1412.015 613.896,1294.799 " />
<polygon stroke="black" stroke-width="1" fill="rgb(204, 204, 204)" fill-opacity="1" points="613.896,1294.799 582.263,1412.015 703.732,1379.117 " />
<polygon stroke="black" stroke-width="1" fill="rgb(204, 204, 204)" fill-opacity="1" points="613.896,1294.799 703.732,1379.117 889.988,1039.518 " />
<polygon stroke="black" stroke-width="1" fill="rgb(204, 204, 204)" fill-opacity="1" points="889.988,1039.518 703.732,1379.117 917.674,1060.017 " />
<polygon stroke="black" stroke-width="1" fill="rgb(204, 204, 204)" fill-opacity="1" points="591.321,866.317 554.849,876.195 856.097,985.584 " />
<polygon stroke="black" stroke-width="1" fill="rgb(204, 204, 204)" fill-opacity="1" points="856.097,985.584 554.849,876.195 536.524,885.293 " />
<polygon stroke="black" stroke-width="1" fill="rgb(204, 204, 204)" fill-opacity="1" points="1274.902,1127.866 1252.310,1245.030 1300.275,1168.936 " />
<polygon stroke="black" stroke-width="1" fill="rgb(204, 204, 204)" fill-opacity="1" points="1300.275,1168.936 1252.310,1245.030 1274.422,1234.337 " />
<polygon stroke="black" stroke-width="1" fill="rgb(204, 204, 204)" fill-opacity="1" points="1300.275,1168.936 1274.422,1234.337 1291.135,1216.339 " />
<polygon stroke="black" stroke-width="1" fill="rgb(204, 204, 204)" fill-opacity="1" points="1205.261,1125.583 1138.396,1089.368 1252.310,1245.030 " />
<polygon stroke="black" stroke-width="1" fill="rgb(204, 204, 204)" fill-opacity="1" points="1252.310,1245.030 1138.396,1089.368 1084.025,1095.141 " />
<polygon stroke="black" stroke-width="1" fill="rgb(204, 204, 204)" fill-opacity="1" points="1252.310,1245.030 1084.025,1095.141 707.388,1392.614 " />
<polygon stroke="black" stroke-width="1" fill="rgb(204, 204, 204)" fill-opacity="1" points="707.388,1392.614 1084.025,1095.141 1035.468,1094.268 " />
<polygon stroke="black" stroke-width="1" fill="rgb(204, 204, 204)" fill-opacity="1" points="707.388,1392.614 1035.468,1094.268 990.716,1087.711 " />
<polygon stroke="black" stroke-width="1" fill="rgb(204, 204, 204)" fill-opacity="1" points="848.860,958.862 841.332,942.683 828.815,929.965 " />
<polygon stroke="black" stroke-width="1" fill="rgb(204, 204, 204)" fill-opacity="1" points="536.524,885.293 523.075,900.712 856.097,985.584 " />
<polygon stroke="black" stroke-width="1" fill="rgb(204, 204, 204)" fill-opacity="1" points="856.097,985.584 523.075,900.712 517.944,940.515 " />
<polygon stroke="black" stroke-width="1" fill="rgb(204, 204, 204)" fill-opacity="1" points="856.097,985.584 517.944,940.515 858.581,993.467 " />
<polygon stroke="black" stroke-width="1" fill="rgb(204, 204, 204)" fill-opacity="1" points="858.581,993.467 517.944,940.515 613.896,1294.799 " />
<polygon stroke="black" stroke-width="1" fill="rgb(204, 204, 204)" fill-opacity="1" points="858.581,993.467 613.896,1294.799 870.592,1017.037 " />
<polygon stroke="black" stroke-width="1" fill="rgb(204, 204, 204)" fill-opacity="1" points="870.592,1017.037 613.896,1294.799 889.988,1039.518 " />
<polygon stroke="black" stroke-width="1" fill="rgb(204, 204, 204)" fill-opacity="1" points="828.815,929.965 812.757,922.181 848.860,958.862 " />
<polygon stroke="black" stroke-width="1" fill="rgb(204, 204, 204)" fill-opacity="1" points="848.860,958.862 812.757,922.181 619.538,866.542 " />
<polygon stroke="black" stroke-width="1" fill="rgb(204, 204, 204)" fill-opacity="1" points="848.860,958.862 619.538,866.542 856.097,985.584 " />
<polygon stroke="black" stroke-width="1" fill="rgb(204, 204, 204)" fill-opacity="1" points="856.097,985.584 619.538,866.542 605.445,864.496 " />
<polygon stroke="black" stroke-width="1" fill="rgb(204, 204, 204)" fill-opacity="1" points="856.097,985.584 605.445,864.496 591.321,866.317 " />
<polygon stroke="black" stroke-width="1" fill="rgb(204, 204, 204)" fill-opacity="1" points="356.029,1786.151 457.070,1785.833 356.124,1723.218 " />
<polygon stroke="black" stroke-width="1" fill="rgb(204, 204, 204)" fill-opacity="1" points="356.124,1723.218 457.070,1785.833 456.641,1656.862 " />
<polygon stroke="black" stroke-width="1" fill="rgb(204, 204, 204)" fill-opacity="1" points="356.124,1723.218 456.641,1656.862 128.954,1723.055 " />
<polygon stroke="black" stroke-width="1" fill="rgb(204, 204, 204)" fill-opacity="1" points="128.954,1723.055 456.641,1656.862 28.755,1657.068 " />
<polygon stroke="black" stroke-width="1" fill="rgb(204, 204, 204)" fill-opacity="1" points="128.954,1723.055 28.755,1657.068 128.920,1785.423 " />
<polygon stroke="black" stroke-width="1" fill="rgb(204, 204, 204)" fill-opacity="1" points="128.920,1785.423 28.755,1657.068 28.685,1785.369 " />
<polygon stroke="black" stroke-width="1" fill="rgb(204, 204, 204)" fill-opacity="1" points="459.431,2018.416 458.794,1955.091 357.660,2019.440 " />
<polygon stroke="black" stroke-width="1" fill="rgb(204, 204, 204)" fill-opacity="1" points="357.660,2019.440 458.794,1955.091 357.022,1956.116 " />
<polygon stroke="black" stroke-width="1" fill="rgb(204, 204, 204)" fill-opacity="1" points="28.594,1952.238 28.560,2014.606 128.829,1952.292 " />
<polygon stroke="black" stroke-width="1" fill="rgb(204, 204, 204)" fill-opacity="1" points="128.829,1952.292 28.560,2014.606 128.795,2014.661 " />
<polygon stroke="black" stroke-width="1" fill="rgb(204, 204, 204)" fill-opacity="1" points="357.022,1956.116 458.794,1955.091 458.581,1933.913 " />
<polygon stroke="black" stroke-width="1" fill="rgb(204, 204, 204)" fill-opacity="1" points="357.022,1956.116 458.581,1933.913 356.809,1934.937 " />
<polygon stroke="black" stroke-width="1" fill="rgb(204, 204, 204)" fill-opacity="1" points="356.809,1934.937 458.581,1933.913 458.368,1912.735 " />
<polygon stroke="black" stroke-width="1" fill="rgb(204, 204, 204)" fill-opacity="1" points="356.809,1934.937 458.368,1912.735 356.596,1913.759 " />
<polygon stroke="black" stroke-width="1" fill="rgb(204, 204, 204)" fill-opacity="1" points="356.596,1913.759 458.368,1912.735 458.154,1891.556 " />
<polygon stroke="black" stroke-width="1" fill="rgb(204, 204, 204)" fill-opacity="1" points="356.596,1913.759 458.154,1891.556 356.383,1892.581 " />
<polygon stroke="black" stroke-width="1" fill="rgb(204, 204, 204)" fill-opacity="1" points="356.383,1892.581 458.154,1891.556 457.941,1870.378 " />
<polygon stroke="black" stroke-width="1" fill="rgb(204, 204, 204)" fill-opacity="1" points="356.383,1892.581 457.941,1870.378 356.170,1871.402 " />
<polygon stroke="black" stroke-width="1" fill="rgb(204, 204, 204)" fill-opacity="1" points="356.170,1871.402 457.941,1870.378 457.728,1849.200 " />
<polygon stroke="black" stroke-width="1" fill="rgb(204, 204, 204)" fill-opacity="1" points="356.170,1871.402 457.728,1849.200 356.018,1850.034 " />
<polygon stroke="black" stroke-width="1" fill="rgb(204, 204, 204)" fill-opacity="1" points="356.018,1850.034 457.728,1849.200 457.513,1828.038 " />
<polygon stroke="black" stroke-width="1" fill="rgb(204, 204, 204)" fill-opacity="1" points="356.018,1850.034 457.513,1828.038 355.945,1828.692 " />
<polygon stroke="black" stroke-width="1" fill="rgb(204, 204, 204)" fill-opacity="1" points="355.945,1828.692 457.513,1828.038 457.294,1806.910 " />
<polygon stroke="black" stroke-width="1" fill="rgb(204, 204, 204)" fill-opacity="1" points="355.945,1828.692 457.294,1806.910 355.950,1807.392 " />
<polygon stroke="black" stroke-width="1" fill="rgb(204, 204, 204)" fill-opacity="1" points="355.950,1807.392 457.294,1806.910 457.070,1785.833 " />
<polygon stroke="black" stroke-width="1" fill="rgb(204, 204, 204)" fill-opacity="1" points="355.950,1807.392 457.070,1785.833 356.029,1786.151 " />
<polygon stroke="black" stroke-width="1" fill="rgb(204, 204, 204)" fill-opacity="1" points="28.594,1952.238 128.829,1952.292 128.841,1931.434 " />
<polygon stroke="black" stroke-width="1" fill="rgb(204, 204, 204)" fill-opacity="1" points="28.594,1952.238 128.841,1931.434 28.605,1931.379 " />
<polygon stroke="black" stroke-width="1" fill="rgb(204, 204, 204)" fill-opacity="1" points="28.605,1931.379 128.841,1931.434 128.852,1910.575 " />
<polygon stroke="black" stroke-width="1" fill="rgb(204, 204, 204)" fill-opacity="1" points="28.605,1931.379 128.852,1910.575 28.617,1910.521 " />
<polygon stroke="black" stroke-width="1" fill="rgb(204, 204, 204)" fill-opacity="1" points="28.617,1910.521 128.852,1910.575 128.863,1889.717 " />
<polygon stroke="black" stroke-width="1" fill="rgb(204, 204, 204)" fill-opacity="1" points="28.617,1910.521 128.863,1889.717 28.628,1889.662 " />
<polygon stroke="black" stroke-width="1" fill="rgb(204, 204, 204)" fill-opacity="1" points="28.628,1889.662 128.863,1889.717 128.875,1868.858 " />
<polygon stroke="black" stroke-width="1" fill="rgb(204, 204, 204)" fill-opacity="1" points="28.628,1889.662 128.875,1868.858 28.639,1868.803 " />
<polygon stroke="black" stroke-width="1" fill="rgb(204, 204, 204)" fill-opacity="1" points="28.639,1868.803 128.875,1868.858 128.886,1847.999 " />
<polygon stroke="black" stroke-width="1" fill="rgb(204, 204, 204)" fill-opacity="1" points="28.639,1868.803 128.886,1847.999 28.651,1847.945 " />
<polygon stroke="black" stroke-width="1" fill="rgb(204, 204, 204)" fill-opacity="1" points="28.651,1847.945 128.886,1847.999 128.897,1827.141 " />
<polygon stroke="black" stroke-width="1" fill="rgb(204, 204, 204)" fill-opacity="1" points="28.651,1847.945 128.897,1827.141 28.662,1827.086 " />
<polygon stroke="black" stroke-width="1" fill="rgb(204, 204, 204)" fill-opacity="1" points="28.662,1827.086 128.897,1827.141 128.909,1806.282 " />
<polygon stroke="black" stroke-width="1" fill="rgb(204, 204, 204)" fill-opacity="1" points="28.662,1827.086 128.909,1806.282 28.673,1806.227 " />
<polygon stroke="black" stroke-width="1" fill="rgb(204, 204, 204)" fill-opacity="1" points="28.673,1806.227 128.909,1806.282 128.920,1785.423 " />
<polygon stroke="black" stroke-width="1" fill="rgb(204, 204, 204)" fill-opacity="1" points="28.673,1806.227 128.920,1785.423 28.685,1785.369 " />
<polygon stroke="black" stroke-width="1" fill="rgb(204, 204, 204)" fill-opacity="1" points="36.318,171.992 36.470,367.181 443.112,170.812 " />
<polygon stroke="black" stroke-width="1" fill="rgb(204, 204, 204)" fill-opacity="1" points="443.112,170.812 36.470,367.181 444.092,365.998 " />
<polygon stroke="black" stroke-width="1" fill="rgb(204, 204, 204)" fill-opacity="1" points="525.692,1822.371 542.405,1840.369 564.516,1851.062 " />
<polygon stroke="black" stroke-width="1" fill="rgb(204, 204, 204)" fill-opacity="1" points="564.516,1851.062 611.565,1731.615 587.333,1725.053 " />
<polygon stroke="black" stroke-width="1" fill="rgb(204, 204, 204)" fill-opacity="1" points="1261.978,1916.823 1202.931,1900.831 1113.094,1985.149 " />
<polygon stroke="black" stroke-width="1" fill="rgb(204, 204, 204)" fill-opacity="1" points="1274.366,2012.916 1289.784,1999.468 1298.883,1981.143 " />
<polygon stroke="black" stroke-width="1" fill="rgb(204, 204, 204)" fill-opacity="1" points="1202.931,1900.831 946.234,1623.069 1113.094,1985.149 " />
<polygon stroke="black" stroke-width="1" fill="rgb(204, 204, 204)" fill-opacity="1" points="1113.094,1985.149 946.234,1623.069 926.839,1645.550 " />
<polygon stroke="black" stroke-width="1" fill="rgb(204, 204, 204)" fill-opacity="1" points="1113.094,1985.149 926.839,1645.550 1109.439,1998.646 " />
<polygon stroke="black" stroke-width="1" fill="rgb(204, 204, 204)" fill-opacity="1" points="1109.439,1998.646 926.839,1645.550 899.153,1666.049 " />
<polygon stroke="black" stroke-width="1" fill="rgb(204, 204, 204)" fill-opacity="1" points="1109.439,1998.646 899.153,1666.049 862.918,1683.125 " />
<polygon stroke="black" stroke-width="1" fill="rgb(204, 204, 204)" fill-opacity="1" points="587.333,1725.053 571.524,1723.271 564.516,1851.062 " />
<polygon stroke="black" stroke-width="1" fill="rgb(204, 204, 204)" fill-opacity="1" points="564.516,1851.062 571.524,1723.271 555.909,1726.313 " />
<polygon stroke="black" stroke-width="1" fill="rgb(204, 204, 204)" fill-opacity="1" points="564.516,1851.062 555.909,1726.313 541.924,1733.898 " />
<polygon stroke="black" stroke-width="1" fill="rgb(204, 204, 204)" fill-opacity="1" points="1298.883,1981.143 1300.276,1960.731 1293.751,1941.340 " />
<polygon stroke="black" stroke-width="1" fill="rgb(204, 204, 204)" fill-opacity="1" points="1113.094,1985.149 1234.563,2018.047 1261.978,1916.823 " />
<polygon stroke="black" stroke-width="1" fill="rgb(204, 204, 204)" fill-opacity="1" points="1261.978,1916.823 1234.563,2018.047 1254.975,2019.440 " />
<polygon stroke="black" stroke-width="1" fill="rgb(204, 204, 204)" fill-opacity="1" points="1261.978,1916.823 1254.975,2019.440 1274.366,2012.916 " />
<polygon stroke="black" stroke-width="1" fill="rgb(204, 204, 204)" fill-opacity="1" points="1274.366,2012.916 1298.883,1981.143 1261.978,1916.823 " />
<polygon stroke="black" stroke-width="1" fill="rgb(204, 204, 204)" fill-opacity="1" points="1261.978,1916.823 1298.883,1981.143 1293.751,1941.340 " />
<polygon stroke="black" stroke-width="1" fill="rgb(204, 204, 204)" fill-opacity="1" points="1261.978,1916.823 1293.751,1941.340 1280.303,1925.921 " />
<polygon stroke="black" stroke-width="1" fill="rgb(204, 204, 204)" fill-opacity="1" points="1261.978,1482.227 1225.506,1472.350 960.730,1591.616 " />
<polygon stroke="black" stroke-width="1" fill="rgb(204, 204, 204)" fill-opacity="1" points="1298.883,1546.547 960.730,1591.616 1202.931,1900.831 " />
<polygon stroke="black" stroke-width="1" fill="rgb(204, 204, 204)" fill-opacity="1" points="1202.931,1900.831 960.730,1591.616 958.245,1599.499 " />
<polygon stroke="black" stroke-width="1" fill="rgb(204, 204, 204)" fill-opacity="1" points="1202.931,1900.831 958.245,1599.499 946.234,1623.069 " />
<polygon stroke="black" stroke-width="1" fill="rgb(204, 204, 204)" fill-opacity="1" points="678.431,1695.400 611.565,1731.615 732.802,1701.173 " />
<polygon stroke="black" stroke-width="1" fill="rgb(204, 204, 204)" fill-opacity="1" points="732.802,1701.173 611.565,1731.615 564.516,1851.062 " />
<polygon stroke="black" stroke-width="1" fill="rgb(204, 204, 204)" fill-opacity="1" points="732.802,1701.173 564.516,1851.062 781.359,1700.300 " />
<polygon stroke="black" stroke-width="1" fill="rgb(204, 204, 204)" fill-opacity="1" points="781.359,1700.300 564.516,1851.062 1109.439,1998.646 " />
<polygon stroke="black" stroke-width="1" fill="rgb(204, 204, 204)" fill-opacity="1" points="781.359,1700.300 1109.439,1998.646 826.111,1693.743 " />
<polygon stroke="black" stroke-width="1" fill="rgb(204, 204, 204)" fill-opacity="1" points="826.111,1693.743 1109.439,1998.646 862.918,1683.125 " />
<polygon stroke="black" stroke-width="1" fill="rgb(204, 204, 204)" fill-opacity="1" points="516.662,1799.529 525.692,1822.371 516.551,1774.968 " />
<polygon stroke="black" stroke-width="1" fill="rgb(204, 204, 204)" fill-opacity="1" points="516.551,1774.968 525.692,1822.371 564.516,1851.062 " />
<polygon stroke="black" stroke-width="1" fill="rgb(204, 204, 204)" fill-opacity="1" points="516.551,1774.968 564.516,1851.062 525.374,1752.046 " />
<polygon stroke="black" stroke-width="1" fill="rgb(204, 204, 204)" fill-opacity="1" points="525.374,1752.046 564.516,1851.062 541.924,1733.898 " />
<polygon stroke="black" stroke-width="1" fill="rgb(204, 204, 204)" fill-opacity="1" points="437.408,87.595 441.683,106.795 438.036,76.462 " />
<polygon stroke="black" stroke-width="1" fill="rgb(204, 204, 204)" fill-opacity="1" points="1293.751,1506.744 1261.978,1482.227 960.730,1591.616 " />
<polygon stroke="black" stroke-width="1" fill="rgb(204, 204, 204)" fill-opacity="1" points="1293.751,1506.744 960.730,1591.616 1300.276,1526.135 " />
<polygon stroke="black" stroke-width="1" fill="rgb(204, 204, 204)" fill-opacity="1" points="1300.276,1526.135 960.730,1591.616 1298.883,1546.547 " />
<polygon stroke="black" stroke-width="1" fill="rgb(204, 204, 204)" fill-opacity="1" points="988.012,1535.997 975.495,1548.715 1004.069,1528.213 " />
<polygon stroke="black" stroke-width="1" fill="rgb(204, 204, 204)" fill-opacity="1" points="1004.069,1528.213 975.495,1548.715 967.967,1564.894 " />
<polygon stroke="black" stroke-width="1" fill="rgb(204, 204, 204)" fill-opacity="1" points="1004.069,1528.213 967.967,1564.894 1197.289,1472.574 " />
<polygon stroke="black" stroke-width="1" fill="rgb(204, 204, 204)" fill-opacity="1" points="1197.289,1472.574 967.967,1564.894 960.730,1591.616 " />
<polygon stroke="black" stroke-width="1" fill="rgb(204, 204, 204)" fill-opacity="1" points="1197.289,1472.574 960.730,1591.616 1211.382,1470.528 " />
<polygon stroke="black" stroke-width="1" fill="rgb(204, 204, 204)" fill-opacity="1" points="1211.382,1470.528 960.730,1591.616 1225.506,1472.350 " />
<polygon stroke="black" stroke-width="1" fill="rgb(204, 204, 204)" fill-opacity="1" points="442.203,143.250 441.683,106.795 37.067,144.426 " />
<polygon stroke="black" stroke-width="1" fill="rgb(204, 204, 204)" fill-opacity="1" points="37.067,144.426 441.683,106.795 37.375,107.968 " />
<polygon stroke="black" stroke-width="1" fill="rgb(204, 204, 204)" fill-opacity="1" points="516.551,807.376 883.599,807.376 516.551,387.893 " />
<polygon stroke="black" stroke-width="1" fill="rgb(204, 204, 204)" fill-opacity="1" points="516.551,387.893 883.599,807.376 883.599,709.059 " />
<polygon stroke="black" stroke-width="1" fill="rgb(204, 204, 204)" fill-opacity="1" points="883.599,387.893 516.551,387.893 883.599,486.209 " />
<polygon stroke="black" stroke-width="1" fill="rgb(204, 204, 204)" fill-opacity="1" points="883.599,486.209 516.551,387.893 883.599,709.059 " />
<polygon stroke="black" stroke-width="1" fill="rgb(204, 204, 204)" fill-opacity="1" points="883.599,486.209 883.599,709.059 988.470,486.209 " />
<polygon stroke="black" stroke-width="1" fill="rgb(204, 204, 204)" fill-opacity="1" points="988.470,486.209 883.599,709.059 988.470,709.059 " />
<polygon stroke="black" stroke-width="1" fill="rgb(204, 204, 204)" fill-opacity="1" points="516.551,63.912 516.551,168.782 577.726,63.912 " />
<polygon stroke="black" stroke-width="1" fill="rgb(204, 204, 204)" fill-opacity="1" points="577.726,63.912 516.551,168.782 577.726,168.782 " />
<polygon stroke="black" stroke-width="1" fill="rgb(204, 204, 204)" fill-opacity="1" points="577.726,63.912 577.726,168.782 597.792,67.903 " />
<polygon stroke="black" stroke-width="1" fill="rgb(204, 204, 204)" fill-opacity="1" points="577.726,168.782 597.792,164.791 614.803,153.424 " />
<polygon stroke="black" stroke-width="1" fill="rgb(204, 204, 204)" fill-opacity="1" points="614.803,79.270 597.792,67.903 626.170,96.281 " />
<polygon stroke="black" stroke-width="1" fill="rgb(204, 204, 204)" fill-opacity="1" points="626.170,96.281 597.792,67.903 577.726,168.782 " />
<polygon stroke="black" stroke-width="1" fill="rgb(204, 204, 204)" fill-opacity="1" points="626.170,96.281 577.726,168.782 630.161,116.347 " />
<polygon stroke="black" stroke-width="1" fill="rgb(204, 204, 204)" fill-opacity="1" points="630.161,116.347 577.726,168.782 614.803,153.424 " />
<polygon stroke="black" stroke-width="1" fill="rgb(204, 204, 204)" fill-opacity="1" points="630.161,116.347 614.803,153.424 626.170,136.413 " />
<polygon stroke="black" stroke-width="1" fill="rgb(204, 204, 204)" fill-opacity="1" points="630.161,330.773 630.161,225.902 568.986,330.773 " />
<polygon stroke="black" stroke-width="1" fill="rgb(204, 204, 204)" fill-opacity="1" points="568.986,330.773 630.161,225.902 568.986,225.902 " />
<polygon stroke="black" stroke-width="1" fill="rgb(204, 204, 204)" fill-opacity="1" points="568.986,330.773 568.986,225.902 548.920,229.894 " />
<polygon stroke="black" stroke-width="1" fill="rgb(204, 204, 204)" fill-opacity="1" points="548.920,229.894 531.909,241.260 568.986,330.773 " />
<polygon stroke="black" stroke-width="1" fill="rgb(204, 204, 204)" fill-opacity="1" points="568.986,330.773 531.909,241.260 520.542,258.271 " />
<polygon stroke="black" stroke-width="1" fill="rgb(204, 204, 204)" fill-opacity="1" points="568.986,330.773 520.542,258.271 516.551,278.338 " />
<polygon stroke="black" stroke-width="1" fill="rgb(204, 204, 204)" fill-opacity="1" points="516.551,278.338 520.542,298.404 568.986,330.773 " />
<polygon stroke="black" stroke-width="1" fill="rgb(204, 204, 204)" fill-opacity="1" points="568.986,330.773 520.542,298.404 531.909,315.415 " />
<polygon stroke="black" stroke-width="1" fill="rgb(204, 204, 204)" fill-opacity="1" points="568.986,330.773 531.909,315.415 548.920,326.781 " />
<polygon stroke="black" stroke-width="1" fill="rgb(204, 204, 204)" fill-opacity="1" points="438.904,37.458 39.048,28.560 38.614,48.062 " />
<polygon stroke="black" stroke-width="1" fill="rgb(204, 204, 204)" fill-opacity="1" points="438.904,37.458 38.614,48.062 438.470,56.960 " />
<polygon stroke="black" stroke-width="1" fill="rgb(204, 204, 204)" fill-opacity="1" points="438.470,56.960 38.614,48.062 38.180,67.564 " />
<polygon stroke="black" stroke-width="1" fill="rgb(204, 204, 204)" fill-opacity="1" points="438.470,56.960 38.180,67.564 438.036,76.462 " />
<polygon stroke="black" stroke-width="1" fill="rgb(204, 204, 204)" fill-opacity="1" points="438.036,76.462 38.180,67.564 37.746,87.066 " />
<polygon stroke="black" stroke-width="1" fill="rgb(204, 204, 204)" fill-opacity="1" points="438.036,76.462 37.746,87.066 437.408,87.595 " />
<polygon stroke="black" stroke-width="1" fill="rgb(204, 204, 204)" fill-opacity="1" points="437.408,87.595 37.746,87.066 37.375,107.968 " />
<polygon stroke="black" stroke-width="1" fill="rgb(204, 204, 204)" fill-opacity="1" points="437.408,87.595 37.375,107.968 441.683,106.795 " />
<polygon stroke="black" stroke-width="1" fill="rgb(204, 204, 204)" fill-opacity="1" points="28.850,1642.773 456.548,1642.443 28.560,1067.273 " />
<polygon stroke="black" stroke-width="1" fill="rgb(204, 204, 204)" fill-opacity="1" points="28.560,1067.273 456.548,1642.443 455.803,1066.789 " />
<polygon stroke="black" stroke-width="1" fill="rgb(204, 204, 204)" fill-opacity="1" points="28.755,1657.068 456.641,1656.862 28.850,1642.773 " />
<polygon stroke="black" stroke-width="1" fill="rgb(204, 204, 204)" fill-opacity="1" points="28.850,1642.773 456.641,1656.862 456.548,1642.443 " />
<polygon stroke="black" stroke-width="1" fill="rgb(204, 204, 204)" fill-opacity="1" points="28.560,1067.273 455.803,1066.789 455.416,1041.606 " />
<polygon stroke="black" stroke-width="1" fill="rgb(204, 204, 204)" fill-opacity="1" points="28.560,1067.273 455.416,1041.606 28.901,1042.272 " />
<polygon stroke="black" stroke-width="1" fill="rgb(204, 204, 204)" fill-opacity="1" points="28.901,1042.272 455.416,1041.606 455.006,1016.464 " />
<polygon stroke="black" stroke-width="1" fill="rgb(204, 204, 204)" fill-opacity="1" points="28.901,1042.272 455.006,1016.464 29.242,1017.317 " />
<polygon stroke="black" stroke-width="1" fill="rgb(204, 204, 204)" fill-opacity="1" points="29.242,1017.317 455.006,1016.464 454.575,991.366 " />
<polygon stroke="black" stroke-width="1" fill="rgb(204, 204, 204)" fill-opacity="1" points="29.242,1017.317 454.575,991.366 29.584,992.407 " />
<polygon stroke="black" stroke-width="1" fill="rgb(204, 204, 204)" fill-opacity="1" points="29.584,992.407 454.575,991.366 454.121,966.313 " />
<polygon stroke="black" stroke-width="1" fill="rgb(204, 204, 204)" fill-opacity="1" points="29.584,992.407 454.121,966.313 29.926,967.544 " />
<polygon stroke="black" stroke-width="1" fill="rgb(204, 204, 204)" fill-opacity="1" points="29.926,967.544 454.121,966.313 453.634,941.501 " />
<polygon stroke="black" stroke-width="1" fill="rgb(204, 204, 204)" fill-opacity="1" points="29.926,967.544 453.634,941.501 30.269,942.730 " />
<polygon stroke="black" stroke-width="1" fill="rgb(204, 204, 204)" fill-opacity="1" points="30.269,942.730 453.634,941.501 453.148,916.738 " />
<polygon stroke="black" stroke-width="1" fill="rgb(204, 204, 204)" fill-opacity="1" points="30.269,942.730 453.148,916.738 30.611,917.964 " />
<polygon stroke="black" stroke-width="1" fill="rgb(204, 204, 204)" fill-opacity="1" points="445.980,445.264 445.487,418.172 35.043,446.457 " />
<polygon stroke="black" stroke-width="1" fill="rgb(204, 204, 204)" fill-opacity="1" points="35.043,446.457 445.487,418.172 35.379,419.363 " />
<polygon stroke="black" stroke-width="1" fill="rgb(204, 204, 204)" fill-opacity="1" points="32.056,844.912 31.715,870.027 451.279,843.696 " />
<polygon stroke="black" stroke-width="1" fill="rgb(204, 204, 204)" fill-opacity="1" points="451.279,843.696 31.715,870.027 451.766,868.808 " />
<polygon stroke="black" stroke-width="1" fill="rgb(204, 204, 204)" fill-opacity="1" points="36.318,171.992 443.112,170.812 442.657,157.017 " />
<polygon stroke="black" stroke-width="1" fill="rgb(204, 204, 204)" fill-opacity="1" points="36.318,171.992 442.657,157.017 36.693,158.195 " />
<polygon stroke="black" stroke-width="1" fill="rgb(204, 204, 204)" fill-opacity="1" points="36.693,158.195 442.657,157.017 442.203,143.250 " />
<polygon stroke="black" stroke-width="1" fill="rgb(204, 204, 204)" fill-opacity="1" points="36.693,158.195 442.203,143.250 37.067,144.426 " />
<polygon stroke="black" stroke-width="1" fill="rgb(204, 204, 204)" fill-opacity="1" points="35.379,419.363 445.487,418.172 445.022,400.745 " />
<polygon stroke="black" stroke-width="1" fill="rgb(204, 204, 204)" fill-opacity="1" points="35.379,419.363 445.022,400.745 35.743,401.933 " />
<polygon stroke="black" stroke-width="1" fill="rgb(204, 204, 204)" fill-opacity="1" points="35.743,401.933 445.022,400.745 444.557,383.354 " />
<polygon stroke="black" stroke-width="1" fill="rgb(204, 204, 204)" fill-opacity="1" points="35.743,401.933 444.557,383.354 36.106,384.539 " />
<polygon stroke="black" stroke-width="1" fill="rgb(204, 204, 204)" fill-opacity="1" points="36.106,384.539 444.557,383.354 444.092,365.998 " />
<polygon stroke="black" stroke-width="1" fill="rgb(204, 204, 204)" fill-opacity="1" points="36.106,384.539 444.092,365.998 36.470,367.181 " />
<polygon stroke="black" stroke-width="1" fill="rgb(204, 204, 204)" fill-opacity="1" points="30.611,917.964 453.148,916.738 452.687,900.730 " />
<polygon stroke="black" stroke-width="1" fill="rgb(204, 204, 204)" fill-opacity="1" points="30.611,917.964 452.687,900.730 30.979,901.954 " />
<polygon stroke="black" stroke-width="1" fill="rgb(204, 204, 204)" fill-opacity="1" points="30.979,901.954 452.687,900.730 452.227,884.753 " />
<polygon stroke="black" stroke-width="1" fill="rgb(204, 204, 204)" fill-opacity="1" points="30.979,901.954 452.227,884.753 31.347,885.975 " />
<polygon stroke="black" stroke-width="1" fill="rgb(204, 204, 204)" fill-opacity="1" points="31.347,885.975 452.227,884.753 451.766,868.808 " />
<polygon stroke="black" stroke-width="1" fill="rgb(204, 204, 204)" fill-opacity="1" points="31.347,885.975 451.766,868.808 31.715,870.027 " />
<polygon stroke="black" stroke-width="1" fill="rgb(204, 204, 204)" fill-opacity="1" points="450.644,767.776 32.250,768.990 451.279,843.696 " />
<polygon stroke="black" stroke-width="1" fill="rgb(204, 204, 204)" fill-opacity="1" points="451.279,843.696 32.250,768.990 32.056,844.912 " />
<polygon stroke="black" stroke-width="1" fill="rgb(204, 204, 204)" fill-opacity="1" points="445.980,445.264 35.043,446.457 34.652,454.563 " />
<polygon stroke="black" stroke-width="1" fill="rgb(204, 204, 204)" fill-opacity="1" points="445.980,445.264 34.652,454.563 446.417,453.369 " />
<polygon stroke="black" stroke-width="1" fill="rgb(204, 204, 204)" fill-opacity="1" points="446.417,453.369 34.652,454.563 34.314,480.558 " />
<polygon stroke="black" stroke-width="1" fill="rgb(204, 204, 204)" fill-opacity="1" points="446.417,453.369 34.314,480.558 446.907,479.361 " />
<polygon stroke="black" stroke-width="1" fill="rgb(204, 204, 204)" fill-opacity="1" points="446.907,479.361 34.314,480.558 33.984,509.792 " />
<polygon stroke="black" stroke-width="1" fill="rgb(204, 204, 204)" fill-opacity="1" points="446.907,479.361 33.984,509.792 447.406,508.593 " />
<polygon stroke="black" stroke-width="1" fill="rgb(204, 204, 204)" fill-opacity="1" points="447.406,508.593 33.984,509.792 33.668,543.779 " />
<polygon stroke="black" stroke-width="1" fill="rgb(204, 204, 204)" fill-opacity="1" points="447.406,508.593 33.668,543.779 447.919,542.577 " />
<polygon stroke="black" stroke-width="1" fill="rgb(204, 204, 204)" fill-opacity="1" points="447.919,542.577 33.668,543.779 33.369,583.377 " />
<polygon stroke="black" stroke-width="1" fill="rgb(204, 204, 204)" fill-opacity="1" points="447.919,542.577 33.369,583.377 448.449,582.172 " />
<polygon stroke="black" stroke-width="1" fill="rgb(204, 204, 204)" fill-opacity="1" points="448.449,582.172 33.369,583.377 33.065,621.322 " />
<polygon stroke="black" stroke-width="1" fill="rgb(204, 204, 204)" fill-opacity="1" points="448.449,582.172 33.065,621.322 448.973,620.115 " />
<polygon stroke="black" stroke-width="1" fill="rgb(204, 204, 204)" fill-opacity="1" points="448.973,620.115 33.065,621.322 32.781,666.212 " />
<polygon stroke="black" stroke-width="1" fill="rgb(204, 204, 204)" fill-opacity="1" points="448.973,620.115 32.781,666.212 449.518,665.003 " />
<polygon stroke="black" stroke-width="1" fill="rgb(204, 204, 204)" fill-opacity="1" points="449.518,665.003 32.781,666.212 32.507,714.508 " />
<polygon stroke="black" stroke-width="1" fill="rgb(204, 204, 204)" fill-opacity="1" points="449.518,665.003 32.507,714.508 450.072,713.296 " />
<polygon stroke="black" stroke-width="1" fill="rgb(204, 204, 204)" fill-opacity="1" points="450.072,713.296 32.507,714.508 32.250,768.990 " />
<polygon stroke="black" stroke-width="1" fill="rgb(204, 204, 204)" fill-opacity="1" points="450.072,713.296 32.250,768.990 450.644,767.776 " />

</svg>
